<?xml version="1.0" encoding="UTF-8"?>
<svg id="_图层_2" data-name="图层 2" xmlns="http://www.w3.org/2000/svg" viewBox="0 0 460.56 98.91">
  <defs>
    <style>
      .cls-1 {
        fill: #1d2088;
      }
    </style>
  </defs>
  <g id="_文字组合" data-name="文字组合">
    <g id="_英文" data-name="英文">
      <path class="cls-1" d="m2.41,80.92l.35.02c1.9.1,1.9.31,1.9,1.92v8c0,4.98-.65,6.12-2.47,6.82l-.33.13.34,1.1.38-.16c2.84-1.2,4.02-2.43,4.02-6.99v-8.9c0-1.64.06-1.82,1.72-1.92l.35-.02v-1.05H2.41v1.05Z"/>
      <path class="cls-1" d="m9.08,80.91l.35.02c1.77.1,1.83.29,1.83,1.92v9.15c0,1.66-.06,1.84-1.83,1.92l-.36.02v1.05h6.31v-1.05l-.36-.02c-1.76-.08-1.83-.29-1.83-1.92v-9.15c0-1.61.07-1.82,1.83-1.92l.35-.02v-1.05h-6.31v1.05Z"/>
      <path class="cls-1" d="m28.89,91.97c-.68-1.73-1.46-3.85-2.28-6.09l-2.35-6.48-.78.32-5.05,11.85c-.81,1.97-1.03,2.08-2.49,2.37l-.3.06v1h5.97v-1.02l-.32-.05c-1.44-.23-1.59-.36-1.59-.76,0-.53.9-3.06,1.24-3.88h4.82c.54,1.35,1.42,3.56,1.42,4.13,0,.18-.1.31-1.47.5l-.32.04v1.02h6.02v-1.02l-.32-.05c-1.45-.23-1.54-.36-2.19-1.98Zm-7.37-4.15c.62-1.61,1.32-3.29,2-4.84l1.75,4.84h-3.75Z"/>
      <path class="cls-1" d="m42.08,80.91l.35.02c2.3.16,2.36.29,2.36,4.89v5.64l-10.15-11.6h-3.37v1.03l.33.04c1.15.13,1.54.35,1.84.72l.13.15c.25.28.31.36.31,2.05v4.99c0,2.33-.07,3.54-.24,4.17-.15.54-.78.85-1.85.93l-.35.02v1.05h6.48v-1.04l-.35-.03c-1.65-.12-1.99-.58-2.1-.96-.15-.61-.17-1.97-.2-4.14v-5.17l10.1,11.51h.8v-9.34c0-1.99.01-3.25.21-3.94.12-.38.43-.84,1.79-.96l.34-.03v-1.04h-6.45v1.05Z"/>
      <path class="cls-1" d="m58.71,88.84l.35.02c2.39.17,2.39.39,2.39,1.6v2c0,.88-.21,1.04-.71,1.21-.68.22-1.68.35-2.83.35-4.83,0-6.55-3.65-6.55-6.78,0-4.15,2.26-6.43,6.36-6.43,2.23,0,3.85.55,4.56,3.24l.08.32,1.07-.13-.06-.38c-.17-1.16-.27-2.24-.35-2.96l-.07-.68-.24-.07c-.36-.11-2.28-.64-4.59-.64-4.41,0-9.16,2.52-9.16,8.06,0,4.58,3.67,7.78,8.93,7.78,1.67,0,3.4-.44,4.78-.79l1.06-.26-.16-.4c-.17-.42-.18-1.12-.18-1.81v-2.07c0-.89,0-.98,1.11-1.15l.32-.05v-1.02h-6.13v1.05Z"/>
      <path class="cls-1" d="m71.26,86.28c-.13-.06-.25-.12-.35-.16-1.63-.83-2.69-1.49-2.69-3.11,0-1.4.77-2.2,2.11-2.2,1.82,0,2.35,1.3,2.81,2.88l.08.27h1.09l-.04-.41c-.12-1.16-.21-1.92-.29-2.56l-.1-.88-.23-.07c-1.28-.42-2-.5-2.81-.5-3.02,0-4.65,2.1-4.65,4.08,0,1.27.64,3.05,3.68,4.29l.46.24c1.19.65,2.54,1.39,2.54,3.26,0,1.73-.83,2.61-2.48,2.61-1.74,0-2.98-1.2-3.69-3.57l-.08-.27h-1.06l.04.41c.13,1.33.37,3.06.57,3.71l.04.13.11.07c.17.11.49.28,1.08.48.64.2,1.49.34,2.44.38,3.05-.05,5.11-1.87,5.11-4.54,0-2.82-2.5-3.98-3.7-4.54Z"/>
      <path class="cls-1" d="m86.06,80.9l.34.03c1.74.17,2.07.6,2.16,1,.15.64.17,1.53.17,4.05v1.22c-.02,4.33-1.43,6.34-4.43,6.34s-4.59-1.85-4.59-5.49v-5.1c0-1.69.05-1.98,1.75-2.02h.37v-1.07h-6.29v1.04l.34.03c1.84.16,1.89.22,1.89,2.02v5.82c0,2.59.58,4.17,1.96,5.28,1.02.82,2.36,1.23,3.98,1.23,1.72,0,3.4-.64,4.48-1.72,1.6-1.65,1.92-3.78,1.92-6.47v-1.1c0-2.5.11-3.4.23-4.1.1-.63,1.04-.87,1.81-.95l.33-.04v-1.03h-6.41v1.04Z"/>
      <path class="cls-1" d="m112.14,80.9l.34.03c1.74.17,2.07.6,2.16,1,.15.64.17,1.53.17,4.05v1.22c-.02,4.33-1.43,6.34-4.43,6.34s-4.59-1.85-4.59-5.49v-5.1c0-1.69.05-1.98,1.75-2.02h.37v-1.07h-6.29v1.04l.34.03c1.84.16,1.89.22,1.89,2.02v5.82c0,2.59.58,4.17,1.96,5.28,1.02.82,2.36,1.23,3.98,1.23,1.72,0,3.4-.64,4.48-1.72,1.6-1.65,1.92-3.78,1.92-6.47v-1.1c0-2.5.11-3.4.23-4.1.1-.63,1.04-.87,1.81-.95l.33-.04v-1.03h-6.41v1.04Z"/>
      <path class="cls-1" d="m129.37,80.91l.35.02c2.3.16,2.36.29,2.36,4.89v5.64l-10.15-11.6h-3.37v1.03l.33.04c1.15.13,1.54.35,1.84.72l.13.15c.25.28.31.36.31,2.05v4.99c0,2.33-.07,3.54-.24,4.17-.15.54-.78.85-1.85.93l-.35.02v1.05h6.48v-1.04l-.35-.03c-1.65-.12-1.99-.58-2.1-.96-.15-.61-.17-1.97-.2-4.14v-5.17l10.1,11.51h.8v-9.34c0-1.99.01-3.25.21-3.94.12-.38.43-.84,1.79-.96l.34-.03v-1.04h-6.45v1.05Z"/>
      <path class="cls-1" d="m136.08,80.91l.35.02c1.77.1,1.83.29,1.83,1.92v9.15c0,1.66-.06,1.84-1.83,1.92l-.36.02v1.05h6.31v-1.05l-.36-.02c-1.76-.08-1.83-.29-1.83-1.92v-9.15c0-1.61.07-1.82,1.83-1.92l.35-.02v-1.05h-6.31v1.05Z"/>
      <path class="cls-1" d="m153.08,80.88l.44.08c1.21.21,1.31.28,1.31.57,0,.96-2.87,7.66-4.03,10.24-1.79-4.32-3.39-8.4-3.91-9.79-.12-.31-.18-.52-.18-.67,0-.19.21-.25,1.33-.39l.33-.04v-1.03h-5.72v1.05l.35.02c1.23.08,1.47.28,2.07,1.81.48,1.2.96,2.4,1.44,3.59,1.14,2.84,2.33,5.77,3.38,8.68l.09.25h.81l.09-.23c1.88-4.66,4.87-11.12,5.23-11.75,1-1.98,1.08-2.14,2.54-2.34l.32-.04v-1.02h-5.9v1.01Z"/>
      <path class="cls-1" d="m170.32,90.83c-.34,1.02-.91,1.79-1.22,2.15-.64.74-2.02.74-3.23.74-1.95,0-2.48,0-2.48-1.79v-4.11h2.32c1.69,0,1.92.06,2.23,1.56l.06.3h1.07v-5.03h-1.07l-.07.29c-.3,1.33-.53,1.48-2.23,1.48h-2.32v-5.01c0-.07,0-.18,0-.26.09,0,.21,0,.26,0h2.16c2.53,0,2.87.48,3.33,2.74l.07.36,1.08-.19-.09-1.27c-.07-1-.14-1.95-.14-2.56v-.38h-10.75v1.05l.36.02c1.62.08,1.74.21,1.74,2.09v9.01c0,1.56,0,1.8-1.97,1.9l-.35.02v1.05h11.43l.07-.29c.08-.34.21-.93.35-1.55.18-.79.36-1.65.48-2.12l.11-.46h-1.14l-.09.26Z"/>
      <path class="cls-1" d="m182.11,90.71c-.63-.85-1.4-2.03-1.83-2.76,1.81-.93,2.66-2.23,2.66-4.07,0-2.58-1.82-4.01-5.13-4.01h-5.8v1.07l.35.02c1.77.13,1.77.25,1.77,1.83v9.22c0,1.66-.06,1.84-1.87,1.92l-.36.02v1.05h6.38v-1.05l-.36-.02c-1.75-.08-1.8-.27-1.8-1.92v-3.44c1.62,0,2.11.07,2.52.67,3.5,5.73,4.67,5.97,6.99,5.97h.3l.22-.95-.36-.09c-1.05-.25-2.7-2.27-3.67-3.47Zm-4.95-9.64c2.39,0,3.6,1.06,3.6,3.14,0,1.13-.35,1.98-1.06,2.54-.53.43-1.27.61-2.57.61h-1.03v-6.11c0-.06,0-.11,0-.15.18-.01.51-.03,1.05-.03Z"/>
      <path class="cls-1" d="m192.08,86.28c-.13-.06-.25-.12-.35-.16-1.63-.83-2.69-1.49-2.69-3.11,0-1.4.77-2.2,2.11-2.2,1.82,0,2.35,1.3,2.81,2.88l.08.27h1.09l-.04-.41c-.12-1.16-.21-1.92-.29-2.56l-.1-.88-.23-.07c-1.28-.42-2-.5-2.81-.5-3.02,0-4.65,2.1-4.65,4.08,0,1.27.64,3.05,3.68,4.29l.46.24c1.19.65,2.54,1.39,2.54,3.26,0,1.73-.83,2.61-2.48,2.61-1.74,0-2.98-1.2-3.69-3.57l-.08-.27h-1.06l.04.41c.13,1.33.37,3.06.57,3.71l.04.13.11.07c.17.11.49.28,1.08.48.64.2,1.49.34,2.44.38,3.05-.05,5.11-1.87,5.11-4.54,0-2.82-2.5-3.98-3.7-4.54Z"/>
      <path class="cls-1" d="m196.57,80.91l.35.02c1.77.1,1.83.29,1.83,1.92v9.15c0,1.66-.06,1.84-1.83,1.92l-.36.02v1.05h6.31v-1.05l-.36-.02c-1.76-.08-1.83-.29-1.83-1.92v-9.15c0-1.61.07-1.82,1.83-1.92l.35-.02v-1.05h-6.31v1.05Z"/>
      <path class="cls-1" d="m216.71,79.73l.02-.37-.96-.06-.12.16c-.26.35-.31.4-.78.4h-9.27c-.28,0-.48,0-.6-.04-.08-.03-.18-.09-.31-.32l-.11-.19h-.95v.36c-.05,1.1-.12,2.54-.26,4l-.04.41h1.07l.08-.27c.65-2.27.84-2.65,3.64-2.65h1.05v10.89c0,1.54,0,1.77-2.1,1.88l-.36.02v1.05h6.96v-1.05l-.36-.02c-2.2-.11-2.2-.34-2.2-1.88v-10.89h1.67c1.78,0,2.5.23,3.01,2.62l.08.37,1.08-.25-.06-.73c-.1-1.23-.21-2.5-.17-3.45Z"/>
      <path class="cls-1" d="m225.25,80.89l.33.04c.71.09,1.53.21,1.53.43-.02.34-.94,2.15-2.95,5.46-.85-1.32-1.82-2.94-2.61-4.28l-.44-.74c-.18-.28-.19-.43-.19-.47,0-.04.06-.25,1.31-.41l.33-.04v-1.03h-5.72v1.05l.35.02c1.1.06,1.29.34,2.18,1.71.55.89,1.02,1.69,1.44,2.41.56.95,1.05,1.78,1.5,2.44.57.95.57,1.13.57,1.28v3.31c0,1.53,0,1.77-2.08,1.86h-.36v1.07h6.96v-1.06h-.36c-2.22-.1-2.22-.34-2.22-1.87v-3.44c.02-.19.04-.4.43-1.02,1.14-1.97,2.06-3.5,2.88-4.57l.31-.44c.78-1.12,1.08-1.54,2.32-1.68l.33-.04v-1.03h-5.85v1.03Z"/>
      <path class="cls-1" d="m240.62,80.92l.35.02c1.9.1,1.9.31,1.9,1.92v8c0,4.98-.65,6.12-2.47,6.82l-.33.13.34,1.1.38-.16c2.84-1.2,4.02-2.43,4.02-6.99v-8.9c0-1.64.06-1.82,1.72-1.92l.35-.02v-1.05h-6.27v1.05Z"/>
      <path class="cls-1" d="m247.29,80.91l.35.02c1.77.1,1.83.29,1.83,1.92v9.15c0,1.66-.06,1.84-1.83,1.92l-.36.02v1.05h6.31v-1.05l-.36-.02c-1.76-.08-1.83-.29-1.83-1.92v-9.15c0-1.61.07-1.82,1.83-1.92l.35-.02v-1.05h-6.31v1.05Z"/>
      <path class="cls-1" d="m264.81,80.91l.35.02c2.3.16,2.36.29,2.36,4.89v5.64l-10.15-11.6h-3.37v1.03l.33.04c1.15.13,1.54.35,1.84.72l.13.15c.25.28.31.36.31,2.05v4.99c0,2.33-.07,3.54-.24,4.17-.15.54-.78.85-1.85.93l-.35.02v1.05h6.48v-1.04l-.35-.03c-1.65-.12-1.99-.58-2.1-.96-.15-.61-.17-1.97-.2-4.14v-5.17l10.1,11.51h.8v-9.34c0-1.99.01-3.25.21-3.94.12-.38.43-.84,1.79-.96l.34-.03v-1.04h-6.45v1.05Z"/>
      <path class="cls-1" d="m281.44,88.84l.35.02c2.39.17,2.39.39,2.39,1.6v2c0,.88-.21,1.04-.71,1.21-.68.22-1.68.35-2.83.35-4.83,0-6.55-3.65-6.55-6.78,0-4.15,2.26-6.43,6.36-6.43,2.23,0,3.85.55,4.56,3.24l.08.32,1.07-.13-.06-.38c-.17-1.16-.27-2.24-.35-2.96l-.07-.68-.24-.07c-.36-.11-2.28-.64-4.59-.64-4.41,0-9.16,2.52-9.16,8.06,0,4.58,3.67,7.78,8.93,7.78,1.67,0,3.4-.44,4.78-.79l1.06-.26-.16-.4c-.17-.42-.18-1.12-.18-1.81v-2.07c0-.89,0-.98,1.11-1.15l.32-.05v-1.02h-6.13v1.05Z"/>
      <path class="cls-1" d="m288.29,80.92l.35.02c1.9.1,1.9.31,1.9,1.92v8c0,4.98-.65,6.12-2.47,6.82l-.33.13.34,1.1.38-.16c2.84-1.2,4.02-2.43,4.02-6.99v-8.9c0-1.64.06-1.82,1.72-1.92l.35-.02v-1.05h-6.27v1.05Z"/>
      <path class="cls-1" d="m294.97,80.91l.35.02c1.77.1,1.83.29,1.83,1.92v9.15c0,1.66-.06,1.84-1.83,1.92l-.36.02v1.05h6.31v-1.05l-.36-.02c-1.76-.08-1.83-.29-1.83-1.92v-9.15c0-1.61.07-1.82,1.83-1.92l.35-.02v-1.05h-6.31v1.05Z"/>
      <path class="cls-1" d="m314.78,91.97c-.68-1.72-1.45-3.83-2.27-6.06l-2.37-6.51-.78.32-5.05,11.85c-.81,1.97-1.03,2.08-2.49,2.37l-.3.06v1h5.97v-1.02l-.32-.05c-1.44-.23-1.59-.36-1.59-.76,0-.53.9-3.06,1.24-3.88h4.82c.54,1.35,1.42,3.56,1.42,4.13,0,.18-.1.31-1.47.5l-.32.04v1.02h6.02v-1.02l-.32-.05c-1.45-.23-1.54-.36-2.19-1.98Zm-7.37-4.15c.62-1.61,1.32-3.29,2-4.84l1.75,4.84h-3.75Z"/>
      <path class="cls-1" d="m327.97,80.91l.35.02c2.3.16,2.36.29,2.36,4.89v5.64l-10.15-11.6h-3.37v1.03l.33.04c1.15.13,1.54.35,1.84.72l.13.15c.25.28.31.36.31,2.05v4.99c0,2.33-.07,3.54-.24,4.17-.15.54-.78.85-1.85.93l-.35.02v1.05h6.48v-1.04l-.35-.03c-1.65-.12-1.99-.58-2.1-.96-.15-.61-.17-1.97-.2-4.14v-5.17l10.1,11.51h.8v-9.34c0-1.99.01-3.25.21-3.94.12-.38.43-.84,1.79-.96l.34-.03v-1.04h-6.45v1.05Z"/>
      <path class="cls-1" d="m344.6,88.84l.35.02c2.39.17,2.39.39,2.39,1.6v2c0,.88-.21,1.04-.71,1.21-.68.22-1.68.35-2.82.35-4.83,0-6.55-3.65-6.55-6.78,0-4.15,2.26-6.43,6.36-6.43,2.23,0,3.85.55,4.56,3.24l.08.32,1.07-.13-.05-.38c-.17-1.16-.28-2.24-.35-2.96l-.07-.68-.24-.07c-.36-.11-2.28-.64-4.59-.64-4.41,0-9.16,2.52-9.16,8.06,0,4.58,3.67,7.78,8.93,7.78,1.67,0,3.4-.44,4.78-.79l1.06-.26-.16-.4c-.17-.42-.18-1.13-.18-1.82v-2.07c0-.89,0-.98,1.11-1.15l.32-.05v-1.02h-6.13v1.05Z"/>
      <path class="cls-1" d="m374.46,90.17c-1.14,2.46-2.37,3.88-5.27,3.88-3.87,0-6.36-2.74-6.36-6.98,0-3.9,2.33-6.22,6.22-6.22,2.88,0,4.24.96,4.83,3.42l.08.34.74-.13.34-.11-.04-.35c-.13-1.28-.25-2.39-.43-3.54l-.04-.25-.25-.05c-.11-.02-.25-.06-.42-.1-.79-.21-2.12-.55-4.01-.55-5.47,0-9.43,3.42-9.43,8.12-.01,1.95.76,3.86,2.12,5.23,1.61,1.62,3.98,2.48,6.83,2.48,1.37,0,3.01-.32,3.99-.52.29-.06.53-.1.69-.13l.2-.03.08-.19c.39-.88.98-3.05,1.21-3.94l.09-.35-1.05-.31-.14.29Z"/>
      <path class="cls-1" d="m384.62,79.52c-5.52,0-8.49,4.17-8.49,8.1,0,4.34,3.51,7.73,7.99,7.73,4.79,0,8.4-3.49,8.4-8.12s-4.01-7.71-7.89-7.71Zm-.67,1.3c3.85,0,6.25,2.83,6.25,7.37,0,4.05-2.78,5.86-5.54,5.86-3.64,0-6.18-2.92-6.18-7.1,0-4.5,2.95-6.11,5.47-6.13Z"/>
      <path class="cls-1" d="m403.96,90.92c-.26.71-.64,1.42-1.11,2.08-.43.45-1.43.71-2.74.71-2.24,0-2.52,0-2.52-2.13v-8.72c0-1.61.07-1.82,1.95-1.92l.35-.02v-1.05h-6.45v1.05l.35.02c1.85.1,1.85.35,1.85,1.92v9.04c0,1.79-.05,1.96-1.76,2.04l-.36.02v1.05h10.7l.05-.32c.1-.63.35-1.62.55-2.42.12-.46.22-.88.28-1.15l.1-.45h-1.14l-.09.25Z"/>
      <path class="cls-1" d="m415.89,90.67l-.09.25c-.26.71-.64,1.42-1.11,2.08-.43.45-1.43.71-2.74.71-2.24,0-2.52,0-2.52-2.13v-8.72c0-1.61.07-1.82,1.95-1.92l.35-.02v-1.05h-6.45v1.05l.35.02c1.85.1,1.85.35,1.85,1.92v9.04c0,1.79-.05,1.96-1.76,2.04l-.36.02v1.05h10.7l.05-.32c.1-.63.35-1.62.55-2.42.12-.46.22-.88.28-1.15l.1-.45h-1.14Z"/>
      <path class="cls-1" d="m428.22,90.84c-.34,1.01-.91,1.78-1.22,2.15-.64.74-2.02.74-3.23.74-1.95,0-2.48,0-2.48-1.79v-4.11h2.32c1.69,0,1.92.06,2.23,1.56l.06.3h1.07v-5.03h-1.07l-.07.29c-.3,1.33-.53,1.48-2.23,1.48h-2.32v-5.01c0-.07,0-.18,0-.26.08,0,.21,0,.26,0h2.16c2.53,0,2.87.48,3.33,2.74l.07.36,1.08-.19-.09-1.29c-.07-1-.14-1.93-.14-2.54v-.38h-10.75v1.05l.36.02c1.62.08,1.74.21,1.74,2.09v9.01c0,1.56,0,1.8-1.97,1.9l-.36.02v1.05h11.43l.07-.29c.08-.35.21-.94.35-1.57.17-.79.36-1.63.48-2.1l.11-.46h-1.14l-.08.26Z"/>
      <path class="cls-1" d="m439.74,88.84l.35.02c2.39.17,2.39.39,2.39,1.6v2c0,.88-.21,1.04-.71,1.21-.68.22-1.68.35-2.83.35-4.83,0-6.55-3.65-6.55-6.78,0-4.15,2.26-6.43,6.36-6.43,2.23,0,3.85.55,4.56,3.24l.08.32,1.07-.13-.05-.38c-.17-1.18-.28-2.27-.35-2.99l-.06-.64-.24-.07c-.36-.11-2.28-.64-4.59-.64-4.41,0-9.16,2.52-9.16,8.06,0,4.58,3.67,7.78,8.93,7.78,1.67,0,3.4-.44,4.79-.79l1.06-.26-.16-.4c-.17-.42-.18-1.12-.18-1.82v-2.07c0-.89,0-.98,1.11-1.15l.32-.05v-1.02h-6.13v1.05Z"/>
      <path class="cls-1" d="m457.51,90.58l-.08.26c-.34,1.01-.91,1.78-1.22,2.15-.64.74-2.02.74-3.23.74-1.95,0-2.48,0-2.48-1.79v-4.11h2.32c1.69,0,1.92.06,2.23,1.56l.06.3h1.07v-5.03h-1.07l-.07.29c-.3,1.33-.53,1.48-2.23,1.48h-2.32v-5.01c0-.07,0-.18,0-.26.08,0,.21,0,.26,0h2.16c2.53,0,2.87.48,3.33,2.74l.07.36,1.08-.19-.09-1.29c-.07-1-.14-1.93-.14-2.54v-.38h-10.75v1.05l.36.02c1.62.08,1.74.21,1.74,2.09v9.01c0,1.56,0,1.8-1.97,1.9l-.36.02v1.05h11.43l.07-.29c.08-.35.21-.94.35-1.57.17-.79.36-1.63.48-2.1l.11-.46h-1.14Z"/>
    </g>
    <g id="_中文" data-name="中文">
      <path id="_8-院" data-name="8-院" class="cls-1" d="m460.56,46.21c-.07.01-.11.06-.11.12,0,.2,0,.4,0,.6-.02.27.06.55-.1.81-.04.07-.01.2-.01.29,0,.46,0,.92,0,1.37,0,.2,0,.39-.08.58-.06.13-.03.31-.03.47,0,1.34,0,2.67,0,4.01,0,.27.06.56-.1.81-.03.04,0,.12-.01.18,0,.22.03.45-.02.66-.04.19-.07.39-.12.57-.16.54-.21,1.11-.52,1.61-.18.28-.3.6-.47.92-.15.19-.39.35-.5.62-.04.1-.15.19-.25.25-.48.3-.91.7-1.48.84-.06.01-.11.05-.16.07-.51.27-1.05.43-1.61.52-.15.02-.28.16-.45.12-.24.11-.49.13-.75.12-.06,0-.14-.02-.18.01-.22.16-.46.09-.7.11-.14,0-.27,0-.4.08-.08.04-.19.04-.29.04-.32,0-.64,0-.96,0-.33.01-.67-.07-1,.1-.08.04-.2.01-.3.01-1.38,0-2.76,0-4.14,0-.18,0-.35.02-.52-.08-.09-.05-.23-.03-.35-.04-.5,0-1,0-1.5,0-.23,0-.46.02-.7-.09-.17-.08-.39-.02-.59-.03-.2-.01-.39.03-.58-.08-.07-.05-.19-.02-.29-.03-.23-.02-.48.05-.7-.11-.04-.03-.12-.02-.18-.01-.38.03-.73-.14-1.09-.19-.47-.07-.89-.31-1.34-.44-.19-.05-.36-.16-.53-.27-.41-.27-.83-.53-1.2-.85-.33-.28-.67-.56-.89-.95-.11-.2-.3-.37-.43-.56-.47-.67-.82-1.38-1.04-2.16-.07-.26-.18-.52-.17-.8-.21-.68-.09-1.38-.12-2.07,0-.08-.02-.17.01-.24.16-.32.13-.69.26-1.02.19-.47.35-.96.59-1.41.04-.07.1-.13.07-.25-.21-.1-.45-.03-.67-.05-.29.12-.5.29-.67.56-.32.5-.63.99-.83,1.55-.18.48-.45.92-.68,1.38-.12.23-.33.39-.46.61-.22.39-.51.75-.76,1.12-.01.02-.02.03-.04.05-.33.37-.65.75-.99,1.11-.34.36-.67.75-1.07,1.05-.63.47-1.19,1.03-1.88,1.42-.63.36-1.23.76-1.93,1.01-.53.19-1.04.45-1.59.6-.28.08-.55.21-.85.2-.22,0-.4.15-.63.13-.24-.03-.48,0-.72,0-.22,0-.44,0-.66,0-.44,0-.87,0-1.28,0-.11-.11-.11-.21-.06-.3.2-.34.41-.67.62-1,.2-.29.41-.57.61-.87.25-.38.54-.72.84-1.06.21-.24.45-.44.62-.72.15-.25.43-.4.57-.68.07-.14.21-.23.33-.35,1.12-1.11,2.23-2.23,3.35-3.34.3-.29.55-.63.79-.96.32-.42.64-.85.95-1.27.1-.14.22-.28.31-.43.36-.68.75-1.34.99-2.07.11-.33.16-.68.31-1-.07-.15-.14-.29-.2-.43-.19-.13-.39-.18-.61-.24-.45-.13-.91-.25-1.33-.46-.19-.1-.4-.13-.59-.24-.28-.17-.49-.39-.63-.52-.3-.39-.36-.74-.46-1.08-.01-.04-.02-.08-.03-.11-.07-.29.11-.53.14-.81.01-.18.15-.36.3-.5.15-.14.26-.3.35-.4.32-.03.52-.21.76-.17.21-.14.46-.11.69-.11.22,0,.44,0,.66,0,.12,0,.24,0,.35-.06.06-.04.15-.05.23-.05.22,0,.44,0,.66-.01.19-.02.37-.14.57-.11.16.02.28-.15.45-.12.54-.18,1.1-.27,1.62-.51.37-.17.77-.27,1.15-.44.39-.18.8-.32,1.19-.49,2.21-.99,4.34-2.15,6.61-3.23.04,0,.16.01.27,0,.11-.02.22-.07.36-.12.22.15.52.08.76.24.36.03.61.27.87.47.25.19.46.42.63.7.37.61.43.95.15,1.67-.19.47-.47.9-.78,1.31-.27.36-.6.68-.86,1.05-.26.37-.66.62-1.06.84-.27.15-.52.36-.82.47-.63.22-1.21.56-1.81.85-.58.51-1.04,1.09-1.11,1.91.24.12.46.24.76.39.1.1.26.26.36.37.12.16.07.29.1.4.03.09.08.18.11.25,0,.2-.14.34-.13.53.02.25.05.51-.1.75-.04.06,0,.16-.01.24-.02.23.04.47-.1.7-.05.07-.02.19-.02.29,0,.82,0,1.63,0,2.32.17.84.45,1.48,1.1,1.89.36.24.77.36,1.18.49.06.02.12.06.17.05.27-.06.49.13.75.13.82-.01,1.64,0,2.46,0,.1,0,.21,0,.29-.04.13-.08.27-.07.4-.07.23-.01.48.04.7-.11.06-.04.16-.01.24-.01.2,0,.39,0,.58-.09.17-.09.4.03.57-.11.28-.01.54-.08.8-.15.68-.19,1.37-.31,2.03-.54.26-.09.52-.15.79-.21.33-.08.62-.24.93-.36.94-.34,2.18-1.03,2.9-1.56.1-.07.18-.16.26-.24.28-.28.58-.55.84-.85.26-.29.49-.61.74-.92.63-.78,1.08-1.68,1.67-2.49.45-.61.91-1.19,1.54-1.62.29-.2.56-.43.87-.6.06-.04.15-.04.22-.05v1.08Zm-18.14-27.84c-.11-.25-.2-.51-.27-.77-.07-.24-.09-.5-.17-.74-.08-.23-.06-.47-.14-.69-.09-.26-.16-.53-.2-.79-.04-.28-.27-.49-.26-.77-.35-.72-.82-1.34-1.5-1.8-.51-.34-1.06-.6-1.64-.79-.24-.08-.49-.14-.73-.21-.39-.11-.8-.15-1.2-.26-.19-.05-.4-.04-.6,0-.21.03-.37-.14-.57-.12-.18.01-.36,0-.54,0-.24,0-.5-.05-.71.02-.25.08-.5.09-.76.11-.06,0-.11.05-.16.07-.5.12-.96.34-1.41.59-.24.23-.51.45-.62.87.1.13.15.34.14.56,0,.04,0,.08.02.12.19.56.39,1.11.7,1.62.32.52.65,1.04,1.07,1.48.52.54,1.01,1.11,1.47,1.71.33.44.67.87.89,1.38.05.11.11.21.16.32.06.14.11.29.15.44.06.23.11.46.11.69.2.31.07.65.11.99-.32.23-.63.44-.91.67-.28.22-.57.41-.89.58-.44.23-.88.44-1.34.6-.19.18-.46.06-.67.21-.08.06-.23.02-.35.02-.2,0-.4,0-.6,0-.1,0-.19-.04-.29-.06-.33-.09-.61-.27-.85-.51-.36-.36-.75-.7-1.05-1.14-.19-.27-.46-.49-.64-.78-.17-.26-.34-.53-.54-.77-.44-.51-.78-1.09-1.2-1.61-.25-.31-.48-.62-.73-.92-.26-.32-.57-.6-.83-.93-.4-.52-.94-.9-1.46-1.3-.16-.12-.3-.26-.47-.35-.45-.24-.86-.55-1.36-.7-.19-.06-.37-.11-.56-.17-.21-.06-.42-.1-.64-.1-.12,0-.23-.01-.35-.06-.24-.1-.52-.09-.76-.01-.16.05-.3.07-.46.08-.08,0-.17-.01-.24.02-.29.14-.61.14-.9.27-.29.13-.58.25-.86.38-.11.05-.2.12-.3.18-.39.21-.67.56-.96.85-.21.43-.4.84-.66,1.21-.23.33-.55.55-.93.7-.49.2-.97.42-1.51.66-.09.1-.2.23-.33.36-.26.25-.49.52-.47.92-.27.39.02.76.05,1.13.19.39.4.77.71,1.08.2.2.39.4.59.59.21.2.41.43.67.58.18.11.36.28.46.46.13.24.35.38.49.6.13.26.27.52.38.79.1.25.14.53.26.77.14.27.07.58.2.85.08.17.05.4.02.59-.04.23.12.42.12.63,0,.24.01.48,0,.72-.01.21.04.43-.07.64-.11.22.03.5-.07.7-.11.23-.06.47-.14.69-.12.31-.2.63-.32.94-.1.25-.19.51-.36.7-.62-.1-.87-.54-1.07-1.05,0-.06,0-.14,0-.22,0-.1-.04-.19-.08-.28-.03-.07-.03-.15-.04-.23,0-.38,0-.76,0-1.14,0-.08,0-.17.04-.23.08-.13.07-.27.07-.4,0-.3,0-.6,0-.9,0-.16,0-.31.08-.46.05-.09.06-.25.01-.34-.09-.15-.08-.3-.09-.46-.01-.27,0-.54-.1-.82-.09-.27-.14-.56-.21-.85-.12-.46-.37-.86-.58-1.28-.11-.23-.21-.46-.39-.66-.19-.2-.32-.45-.53-.64-.15-.13-.29-.28-.42-.42-.57-.61-1.27-1.06-2.01-1.43-.33-.17-.67-.34-1.02-.45-.21-.07-.43-.23-.7-.09-.03.04-.09.1-.14.16,0,.28,0,.56,0,.84,0,.3.02.6,0,.9-.02.28.08.54.12.81.03.19.03.38.1.58.07.19.02.43.14.62-.04.25.12.45.15.69.02.25.12.5.23.72.11.22.09.46.19.67.13.28.21.59.27.89.06.33.26.62.25.96.12.17.06.39.16.56.11.19,0,.41.11.57.12.21.03.44.1.64.08.23.11.46.11.69,0,.18,0,.36,0,.54,0,.1-.02.21.03.29.09.15.08.3.08.46,0,.54,0,1.08,0,1.61,0,.1.03.22-.02.29-.14.22-.09.46-.09.7,0,.44,0,.88,0,1.32,0,.1.01.22-.03.29-.12.19-.07.39-.08.58-.01.2.04.42-.03.59-.08.2-.08.38-.09.58,0,.1,0,.21-.04.29-.09.15-.07.3-.08.46,0,.12.02.26-.03.35-.11.19-.11.39-.09.58.03.23-.16.41-.13.63.05.32-.18.61-.13.93-.15.17-.06.39-.13.57-.06.17-.13.34-.1.51.04.21-.14.37-.13.57.02.3-.18.56-.13.87-.16.14-.05.36-.14.5-.11.17-.02.37-.1.51-.15.27-.06.58-.2.85-.07.12-.06.3-.12.45-.06.16-.09.34-.12.51-.04.21-.11.42-.12.63-.01.24-.14.45-.14.69,0,.19-.11.33-.14.51-.04.25-.07.5-.15.74-.05.16-.08.3-.08.46,0,.16-.14.28-.12.45.02.3-.18.56-.14.87-.18.23-.02.56-.21.79.04.34-.18.65-.13.99-.11.28-.08.58-.16.86-.05.18-.07.34-.08.52,0,.08.02.17-.01.24-.15.3-.1.62-.11.93,0,.08,0,.17-.03.23-.1.15-.08.3-.08.46,0,.26,0,.52,0,.78,0,.26,0,.52,0,.78,0,.28,0,.56,0,.84,0,.26.02.52,0,.78-.03.27.11.5.12.75,0,.26-.01.51.12.75-.05.19.11.33.13.51.03.26.33.95.44,1.14.18.29.4.54.65.76.31.18.64.29.97.4h.71s.08-.06.12-.07c.56-.12.9-.51,1.22-.96.37-.52.57-1.11.8-1.69.04-.11.09-.22.11-.33.1-.6.36-1.16.38-1.77.17-.18.04-.44.14-.62.12-.21.07-.43.09-.64,0-.06-.01-.13.02-.17.13-.18.09-.38.1-.58,0-.1,0-.21.04-.29.09-.15.08-.3.08-.46,0-.14-.04-.3.02-.41.14-.29.09-.58.11-.87,0-.08-.02-.18.01-.24.16-.24.09-.5.1-.75,0-.14-.04-.3.02-.41.16-.33.08-.66.1-.99.01-.16-.04-.35.02-.47.14-.25.09-.5.09-.76.01-.44,0-.88,0-1.32,0-.12-.02-.26.03-.35.1-.17.08-.35.08-.52,0-.96,0-1.91,0-2.87,0-.14-.04-.3.02-.41.13-.23.09-.46.09-.7,0-.5,0-1,0-1.49,0-.1-.03-.22.01-.29.15-.26.08-.54.1-.81.02-.33-.06-.67.11-.99.02-.03.01-.08,0-.12-.07-.44.17-.85.13-1.29.15-.21.1-.46.12-.69,0-.04.03-.07.04-.11.07-.06.15-.04.22-.03.12.08.24.15.35.23.18.12.38.22.53.37.4.41.87.76,1.17,1.26.03.05.08.1.13.12.26.09.38.34.59.48.12.06.23.09.33.16.27.18.58.23.88.31.19.05.39.04.59.04.72,0,1.34-.26,1.86-.76.23-.22.46-.44.63-.6.13-.25.23-.42.31-.6.09-.19.23-.39.25-.59.02-.2.16-.36.14-.57-.02-.22.01-.43.14-.63-.13-.1-.13-.22-.13-.34,0-.18.03-.38-.05-.52-.11-.2-.03-.43-.17-.62-.13-.19-.16-.44-.27-.65-.31-.61-.63-1.23-.97-1.82-.13-.22-.25-.45-.4-.66-.41-.57-.63-1.21-.89-1.85-.05-.14-.15-.28-.13-.45.02-.14-.03-.27-.08-.4-.05-.14-.04-.31-.04-.47,0-.48,0-.96,0-1.43,0-.18-.03-.36.1-.51-.02-.28.14-.52.15-.81,0-.23.1-.45.17-.68.3-.93.61-1.85.95-2.76.18-.5.36-.99.62-1.46.19-.33.39-.63.67-.9.21-.21.5-.23.74-.34.13-.06.27-.05.41.02.03.04.07.08.13.15,0,.92,0,1.86,0,2.79,0,.06,0,.13-.03.17-.12.16-.08.34-.09.52,0,.22,0,.44,0,.66,0,.1,0,.21-.04.29-.08.13-.07.27-.07.4,0,.28,0,.56,0,.84,0,.1.01.21-.03.29-.09.15-.08.3-.08.46,0,.5,0,1,0,1.49,0,.14-.02.28.07.4.07.1.05.23.04.35-.04.36.12.69.17,1.04.13.15.04.34.13.51.22.4.38.82.66,1.18.3.39.63.76,1.08.96.11,0,.19,0,.27,0,.08-.01.15-.04.23-.06.1-.02.19-.04.29-.05.16-.02.32.02.46-.08.13-.09.3-.04.46-.1.26-.1.5-.22.76-.32.27-.11.55-.22.81-.35.26-.13.51-.3.76-.45.22-.13.44-.25.64-.42.22-.19.46-.37.7-.54.41-.31.82-.61,1.23-.91.32-.23.64-.46.98-.66.45-.25.86-.54,1.31-.8.8-.47,1.58-.95,2.41-1.36.67-.33,1.32-.69,2.04-.91.22-.07.46-.11.67-.22.24-.12.53.03.74-.17.48-.03.95-.04,1.39.21.24.13.49.25.74.37.42.2.84.41,1.31.53.13.03.26.06.4.08.41.04.81-.13,1.55-.3.28-.07.55-.2.83-.3.29-.11.59-.21.87-.35.1-.05.21-.1.33-.13.32-.1.63-.22.93-.37.6-.31,1.26-.43,1.87-.69.28-.01.53-.12.79-.22.25-.1.53-.15.79-.22.49-.13.95-.37,1.43-.52.34-.1.67-.22.99-.38.44-.22.87-.46,1.32-.67.43-.21.81-.49,1.15-.82.41-.4.71-.89,1.03-1.36.3-.45.51-.92.65-1.4-.01-.06-.01-.08-.02-.09-.19-.35-.42-.66-.69-.95-.28-.3-.6-.57-.93-.83-.59-.46-1.08-.8-1.76-1.18-.71-.39-1.46-.69-2.22-.92-.43-.13-.85-.3-1.32-.26-.07,0-.17,0-.23-.05-.11-.07-.23-.06-.35-.07-.3,0-.6,0-.9,0-.1,0-.21,0-.29.04-.13.08-.27.07-.4.08-.1,0-.22-.02-.29.03-.21.13-.46.11-.68.19-.24.09-.46.23-.7.31-.31.31-.62.62-.89.88-.2.39-.38.72-.55,1.06-.17.34-.39.64-.68.89-.2.18-.43.29-.72.21-.22-.23-.46-.48-.76-.8-.07-.13-.19-.36-.29-.59Zm.67,13.03c-.49-.21-.93-.5-1.45-.66-.72-.23-1.35-.38-2.06-.43-.06,0-.13,0-.17-.02-.16-.11-.34-.09-.52-.09-.29,0-.6-.05-.87.1-.05.03-.12,0-.18,0-.31,0-.64-.04-.93.12-.29-.06-.53.17-.81.13-.68.25-1.37.46-2.03.77-.37.18-.72.39-1.08.6-.3.17-1.11.76-1.33.97-.17.16-.32.35-.55.45-.1.05-.2.15-.24.25-.07.18-.21.28-.33.42-.08.09-.18.16-.25.26-.43.61-.8,1.26-1.09,1.95-.09.22-.25.46-.11.76.02.02.06.07.11.09.64.29,1.23.68,1.95.8.4.07.79.23,1.21.2.16-.01.31.01.46.08.18.08.41.09.58,0,.22-.11.43-.07.64-.08.26-.01.52-.01.78-.01.35-.19.77-.15,1.12-.33.29,0,.5-.2.77-.28.28-.08.55-.21.82-.32.73-.31,1.27-.57,1.89-.96.63-.4,1.26-.8,1.8-1.34.04-.04.09-.09.14-.11.22-.08.34-.27.49-.42.14-.14.22-.33.36-.46.14-.14.23-.32.35-.47.36-.45.58-.98.85-1.48.03-.05.01-.12.01-.17-.08-.15-.19-.27-.33-.34Z"/>
      <path id="_7-学" data-name="7-学" class="cls-1" d="m358.69,30.47c.2-.07.34-.11.52-.17.2.07.41.2.62.11.24.12.43.21.63.31.23.22.46.45.64.63.16.31.35.56.41.84.06.27.28.48.27.77.17.35.37.69.62,1.02.21.03.42.03.63,0,.07-.47.04-.46-.03-.89-.04-.23-.15-.45-.16-.68-.18-.17-.05-.43-.19-.61-.05-.07-.04-.19-.04-.29,0-.26,0-.52,0-.78,0-.21.04-.43-.09-.64-.05-.07-.02-.19-.02-.29,0-.62,0-1.24,0-1.85,0-.16,0-.31.08-.46.05-.08.03-.19.03-.29,0-1.87,0-3.75,0-5.62,0-.14.01-.27-.07-.4-.04-.06-.05-.15-.04-.23.02-.38-.13-.73-.2-1.09-.08-.43-.29-.81-.43-1.21-.12-.35-.26-.7-.46-1.02-.19-.3-.36-.61-.51-.93-.16-.34-.34-.67-.51-1-.19-.39-.32-.8-.48-1.19-.04-.1-.04-.19-.06-.29-.02-.09-.08-.18-.1-.27-.02-.1,0-.2-.03-.3-.02-.09-.08-.18-.1-.27-.02-.1,0-.2,0-.3,0-.1,0-.2,0-.3,0-.12-.02-.25.03-.35.12-.23.1-.49.22-.73.29-.55.63-1.05,1.1-1.46.2-.18.41-.3.7-.26.47.28.89.64,1.42.88.24.32.64.48.93.79.27.3.56.57.85.85.39.37.66.83.93,1.29.2.34.36.7.54,1.05.19.37.24.78.37,1.17-.05.3.16.56.13.87-.03.28,0,.56,0,.84,0,.3.03.6-.01.9-.05.34-.17.68-.27,1.01-.16.56-.45,1.08-.59,1.65-.12.13-.04.32-.12.45-.09.15-.09.3-.1.46,0,.08-.03.16-.06.22-.05.09-.05.19-.05.29,0,.04,0,.09.02.12.16.26.06.58.21.85.08.13.12.29.19.43.18.37.34.76.55,1.11.2.34.29.73.42,1.09.08.23.11.5.14.74.05.31,0,.64,0,.95-.2.44-.09.9-.11,1.35-.02.44,0,.88,0,1.31,0,.15.11.25.11.39,0,.12,0,.24,0,.34.12.14.12.32.31.44.04,0,.12.03.19.02.34-.09.7-.13.93-.42-.02-.17-.1-.31-.12-.47-.03-.2-.09-.42-.2-.61-.13-.22-.23-.45-.34-.69-.17-.37-.41-.72-.48-1.22,0,.02.05-.05.05-.12.02-.22.03-.44.03-.65,0-.2.14-.36.13-.57-.02-.29-.02-.58.09-.88.07-.17.02-.39.02-.59,0-.28-.05-.57.01-.83.18-.73.06-1.46.11-2.19.02-.35-.06-.71.11-1.05.04-.08.01-.2.01-.3,0-.64,0-1.28,0-1.91,0-.29-.06-.59.1-.87.04-.08.01-.2.01-.3,0-.34,0-.68,0-1.02,0-.23-.03-.47.09-.7.07-.13.01-.31.03-.47.03-.33-.08-.68.11-.99,0-.22,0-.44.01-.66,0-.16-.03-.32.08-.46.03-.04.05-.12.04-.17-.07-.4.18-.77.13-1.17.12-.24.07-.51.14-.75.07-.24.13-.49.2-.73.08-.3.14-.61.23-.9.1-.3.19-.59.27-.89.03-.11.1-.17.18-.23.16-.04.27.13.45.1.32-.05.62.09.92.17.26.07.52.15.78.25.25.1.51.21.75.33.34.16.67.33,1.06.32.15,0,.24.12.39.12.34.01.66-.1.98-.19.13-.04.25-.11.35-.22.13-.15.28-.28.38-.37.18-.25.23-.49.4-.67.08-.08.14-.2.17-.31.1-.42.27-.82.48-1.19.01-.32.23-.54.39-.78.27-.42.75-.69,1.24-.83.33-.1.66-.1.99-.1.17.06.34.11.5.17.11.07.13.19.19.3.06.1.11.21.19.38,0,.06-.01.18,0,.29.02.11.07.22.11.35-.04.11-.1.24-.11.37-.01.14-.09.26-.11.39-.04.22-.15.4-.27.58-.17.24-.32.5-.5.73-.12.15-.05.36-.2.49,0,.18.02.36,0,.53-.06.49.11.95.31,1.36.29.61.83,1.32,1.4,1.72.34.24.68.47,1.06.64.18.08.35.17.55.19.19.02.37.13.57.11.12-.01.23.01.34.07.08.04.2.06.29.03.19-.05.37-.12.57-.11.17,0,.33-.1.51-.13.2-.03.39-.17.6-.27.11-.53-.29-.78-.58-1.09-.71-.35-1.41-.7-2.15-1.07-.29-.33-.73-.59-.86-1.1.16-.42.39-.8.63-1.18.17-.27.34-.53.53-.78.36-.47.71-.94,1.12-1.37.44-.46.92-.87,1.41-1.27.24-.2.5-.39.78-.53.57-.27,1.1-.62,1.71-.8.26-.08.53-.14.79-.21.27-.07.53-.14.81-.13.25,0,.49-.15.75-.11.17.03.36-.03.52.09.04.03.12.04.17.03.37-.07.69.13,1.05.14.17,0,.33.1.51.16.17.17.23.39.26.63.03.21.13.41.23.67.03.17-.05.41.1.63.05.07.02.19.02.29,0,.34,0,.68,0,1.02,0,.16.02.32-.08.46-.03.04-.03.11-.03.17,0,.16,0,.32-.01.48-.01.13-.09.25-.12.39-.11.45-.18.92-.36,1.35-.2.49-.33,1-.58,1.47-.11.2-.17.44-.26.65-.08.2-.24.37-.24.6-.2.41-.4.81-.6,1.22-.14.28-.29.55-.39.86-.09.28-.3.51-.34.81-.34.58-.47,1.24-.72,1.86-.42,1.05-.75,2.13-1.1,3.21-.08.24-.16.48-.2.73-.04.25-.18.48-.13.75.03.18-.15.32-.12.51.02.17.02.35-.09.52-.05.07-.02.19-.02.29,0,.38,0,.76,0,1.14,0,.16-.02.32.08.46.02.03.03.08.03.11-.06.42.17.81.13,1.23.06.05.1.09.13.11.06.02.1.04.14.04.62,0,1.24,0,1.86,0,.33,0,.67-.05,1,.1.17.07.39.01.59.02.27.01.56-.06.81.11.01,0,.04,0,.06,0,.3,0,.59.02.87.12.14.05.32,0,.47.04.56.18,1.15.24,1.69.45.73.28,1.48.55,2.07,1.1.11.11.28.14.38.27.15.21.32.4.46.62.13.22.28.45.33.69.05.27.2.52.17.8-.02.16-.01.32,0,.48.04.47-.12,1.09-.38,1.58-.05.09-.09.17-.13.24-.35.5-.87.77-1.33,1.1-.11.08-.25.11-.38.16-.07.03-.15.05-.22.09-.51.27-1.05.43-1.61.52-.26.15-.54.1-.81.12-.25.01-.52-.05-.76.1-.06.04-.16.01-.24.01-.5,0-1-.02-1.5,0-.23.01-.4-.16-.63-.13-.2.03-.42.05-.59-.01-.23-.08-.49-.04-.69-.14-.2-.1-.44-.02-.62-.18-.38-.05-.66-.26-.89-.58v-.43c.04-.07.09-.18.14-.29.41-.25.83-.51,1.24-.77-.25-.47-.37-.48-.65-.57-.39-.12-.78-.28-1.2-.27-.08,0-.16,0-.23-.04-.27-.12-.54-.12-.8,0-.04.02-.07.03-.11.03-.2,0-.42-.04-.59.03-.2.08-.38.08-.58.1-.23.02-.45.12-.69.14-.19.01-.37.09-.57.11-.19.02-.37.1-.57.13-.11.02-.21.11-.34.09-.34-.04-.65.18-.99.14-.15.13-.34.1-.52.1-.24,0-.44.19-.69.12-.26.13-.54.11-.81.13-.22.21-.56.01-.79.22-.3-.05-.58.1-.87.14-.42.06-.84.17-1.26.26-.14.15-.36.03-.51.14-.15.1-.32.03-.46.08-.37.13-.75.2-1.13.29-.68.16-1.34.41-2.03.55-.32.07-.62.23-.94.33-.41.13-.84.2-1.23.37-.29.12-.58.24-.88.33-.3.09-.59.21-.88.31-.59.21-1.14.52-1.74.7-.07.02-.14.07-.21.1-.39.2-.77.39-1.18.54-.29.11-.59.23-.83.45-.06.05-.14.07-.21.11-.83.44-1.67.89-2.43,1.45-.05.03-.1.06-.16.08-.45.14-.65.52-.78.91-.2.59-.51,1.09-.89,1.58-.17.22-.34.43-.53.63-.44.45-.98.72-1.55.94-.09.03-.18.09-.27.11-.28.04-.51.22-.78.24-.48.03-.96.01-1.44.01-.4-.15-.83-.22-1.2-.46-.38-.24-.67-.55-.99-.87-.11-.22-.22-.45-.33-.68-.07-.14-.17-.28-.18-.43-.03-.27-.17-.52-.14-.81.02-.22,0-.44,0-.66.01-.25-.06-.52.06-.76.11-.21-.03-.49.16-.68.02-.5.25-.94.41-1.4.17-.5.43-.97.7-1.43.36-.61.76-1.19,1.15-1.78.26-.39.53-.78.8-1.16.29-.42.6-.82.87-1.26.36-.58.74-1.16,1.02-1.8Zm14.11-.41c.39,0,.78,0,1.18,0,.1,0,.22.03.29-.02.3-.18.68-.02.97-.21.28.05.54-.07.81-.13.4-.09.79-.2,1.19-.3.34-.08.67-.21,1.01-.29.48-.11.94-.27,1.39-.45.51-.2,1.05-.33,1.52-.63.03-.02.08,0,.12-.02.13-.02.21-.1.26-.23,0-.35,0-.71,0-1.07,0-.1.03-.23-.02-.29-.15-.2-.06-.43-.12-.62-.2-.33-.24-.72-.5-.95-.23.04-.42.12-.6.24-.21.13-.38.27-.48.5-.02.05-.08.09-.12.13-.3.3-.58.6-.89.89-.33.3-.72.53-1.16.69-.18-.22-.38-.4-.63-.46-.27-.07-.51-.22-.78-.25-.3-.03-.56-.18-.84-.25-.95-.22-1.04-.26-1.8-.8-.06-.04-.13-.08-.18-.11-.3-.6-.44-1.09-.5-1.75,0-.06,0-.13-.04-.17-.1-.14-.08-.3-.08-.46,0-.26,0-.52,0-.78-.18-.29-.1-.62-.11-.93,0-1.57,0-3.15,0-4.66-.07-.2-.13-.35-.18-.49-.07,0-.13,0-.18.1,0,.32,0,.67,0,1.03,0,.12.01.25-.04.35-.08.15-.08.3-.08.46,0,.38,0,.76,0,1.14,0,.1.02.22-.02.29-.13.2-.09.42-.09.64,0,.3,0,.6,0,.9,0,.1,0,.21-.04.29-.1.17-.07.35-.08.52,0,.94-.02,1.87,0,2.81.02.73-.1,1.46.11,2.19.05.17.03.36,0,.53-.03.21.15.37.12.57-.04.27.13.49.12.75-.01.26.17.48.15.75.14.14.04.41.33.54Zm8.1-10.99c-.2,0-.38.02-.56,0-.16-.02-.25.12-.39.12-.32,0-.55.17-.76.39-.11.11-.23.22-.35.33-.23.34-.27.73-.39,1.1-.03.08,0,.16.07.2.62.1,1.17-.08,1.72-.41.17-.16.37-.36.55-.53.11-.22.2-.42.28-.57v-.44c-.05-.05-.09-.1-.16-.17Zm-9.93,29.03c-.25.08-.53.12-.79.2-.26.07-.54.1-.8.17-.55.13-1.09.3-1.65.4-.21.03-.4.14-.61.21-.22.08-.44.16-.66.24-.2.08-.41.15-.6.24-.21.11-.4.24-.61.35-.55.29-1.01.68-1.42,1.14,0,.07-.03.13-.01.19.07.24.12.49.18.73.12.44.35.83.56,1.23.32.61.86,1.02,1.43,1.38.42.27.9.39,1.35.57.3-.03.57.16.87.15.73-.03,1.47.1,2.19-.12.28.02.54-.09.8-.17.65-.2,1.31-.4,1.91-.76.15-.09.32-.15.49-.23.25.48.27,1.01.39,1.52.05.2.08.42.12.63.05.23.02.48.02.72,0,.04-.01.09,0,.12.17.23.11.5.1.75-.03.69.09,1.38-.1,2.07-.07.24.04.51-.08.76-.11.23-.01.51-.17.74-.07.54-.33,1-.6,1.45-.23.39-.56.66-.85.96-.13.06-.24.11-.34.17-.33.19-.71.19-1.06.34-.14.06-.32.02-.48.02-.6,0-1.2,0-1.8,0-.12,0-.24,0-.35-.04-.35-.11-.69-.11-1.04,0-.09.03-.19.03-.29.04-.18,0-.36,0-.48,0-.46.18-.89.26-1.26.49-.39.24-.75.52-1.04.91,0,.08-.02.18,0,.27.18.56.43,1.1.79,1.56.5.63,1.17,1.07,1.9,1.39.43.19.87.34,1.32.49.28.09.56.18.84.26.28.08.56.18.84.23.48.09.94.26,1.39.45.62.26,1.24.5,1.82.84.26.16.56.18.84.25.26.06.55.06.81-.09.86-.12,1.51-.62,2.15-1.15.28-.23.46-.54.69-.81.23-.27.43-.56.63-.85.33-.47.62-.96.87-1.47.17-.36.4-.69.52-1.06.09-.28.25-.53.31-.82.06-.3.24-.58.31-.88.05-.21.19-.4.15-.63.13-.19.06-.44.14-.62.09-.22.08-.42.1-.64,0-.08,0-.17.03-.23.11-.16.08-.34.09-.52,0-.22,0-.44,0-.66,0-.1,0-.21.04-.29.08-.13.07-.27.07-.4,0-.6,0-1.2,0-1.79,0-.1.01-.21-.03-.29-.1-.17-.08-.35-.08-.52,0-.32,0-.64,0-.96,0-.1.02-.22-.02-.29-.13-.21-.08-.42-.09-.64,0-.22,0-.44,0-.66,0-.1,0-.21-.04-.29-.09-.15-.07-.31-.08-.46,0-.68,0-1.36,0-2.03,0-.34.02-.66.17-.99.43-.1.84-.29,1.3-.27.04,0,.09,0,.12-.01.21-.16.46-.09.7-.1.12,0,.26.03.35-.02.25-.14.5-.09.76-.1.08,0,.18.02.23-.02.18-.12.38-.09.58-.1.1,0,.2,0,.29-.03.49-.14.97-.3,1.45-.44.39-.12.65-.36.75-.76.05-.21.09-.42.16-.62.07-.2.09-.39.07-.58-.03-.23.16-.4.13-.63-.03-.21-.01-.44-.01-.66-.16-.19-.08-.42-.13-.63,0-.04-.05-.07-.06-.1-.15-.47-.34-.92-.69-1.29-.09-.1-.1-.27-.24-.33-.16-.06-.25-.19-.38-.28-.3-.22-.62-.42-.96-.57-.21-.09-.45-.14-.67-.22-.18-.07-.39-.04-.57-.14-.11-.06-.27-.02-.41-.02-.18,0-.32-.13-.51-.12-.5.02-1,0-1.5,0-.08,0-.18-.02-.24.01-.24.16-.5.08-.76.11-.14.01-.28-.03-.41.05-.06.04-.1.03-.12-.05.09-.14.18-.29.27-.44.03-.05.08-.09.12-.13.28-.32.64-.53,1-.72.45-.24.94-.42,1.35-.73.25-.19.5-.38.75-.57.17-.12.24-.32.35-.48.17-.26.36-.54.44-.83.09-.33.19-.68.16-1.04-.03-.28,0-.56,0-.84,0-.39-.14-.73-.33-1.05-.08-.13-.18-.26-.27-.38-.1-.07-.2-.13-.3-.19-.14-.08-.27-.22-.41-.22-.23,0-.41-.13-.63-.14-.46-.04-.89.16-1.35.15-.02,0-.03.02-.05.03-.82.27-1.63.55-2.4.95-.81.42-1.61.84-2.44,1.21-.49.23-.98.49-1.55.54-.22.15-.5.09-.73.22-.27-.05-.5.14-.75.12-.26-.02-.5.07-.75.11-.21.04-.42.03-.64.11-.2.07-.43.02-.65.03-.04,0-.09,0-.11.02-.16.12-.34.09-.52.1-.1,0-.22-.03-.29.02-.2.13-.42.09-.64.1-.08,0-.17,0-.23.03-.13.08-.26.08-.4.1-.15.02-.28.15-.45.11-.33.12-.66.25-.99.36-.12.04-.19.15-.29.2-.29.12-.45.38-.62.52-.21.34-.28.64-.37.94-.07.22-.04.43-.05.64.18.22.06.5.13.72.14.29.28.55.41.82.35.48.9.55,1.4.7.14.04.31.04.46-.05.06-.04.15-.05.23-.05.28,0,.53-.12.79-.22.13-.05.25-.11.38-.16.52-.18,1.04-.37,1.52-.61.58-.29,1.17-.56,1.8-.71.2-.15.41-.1.59-.08.09.1.07.18.06.28-.29.28-.55.6-.8.93-.3.39-.59.78-.79,1.24-.08.18-.08.39-.2.51v1.04c.12.36.22.66.32.96-.48.27-1.04.33-1.55.5Z"/>
      <path id="_6-江" data-name="6-江" class="cls-1" d="m323.78,31.01c-.13-.26-.25-.52-.55-.61-.47-.47-1.08-.72-1.66-1.01-.26-.13-.53-.26-.81-.34-.36-.11-.68-.31-1.02-.45-.33-.13-.65-.27-.97-.43-.17-.09-.37-.14-.54-.22-.44-.21-.88-.45-1.25-.77-.53-.23-.71-.77-1.05-1.18-.1-.12-.04-.32-.17-.43-.01-.24-.02-.47-.12-.69-.03-.06-.02-.17.02-.23.13-.18.07-.39.1-.58.45-.84,1.08-1.5,1.96-1.9.19-.09.36-.26.56-.32.19-.06.36-.15.54-.24.47-.24.98-.4,1.47-.61.04-.01.08,0,.12-.02.35-.18.74-.24,1.11-.37.37-.12.73-.26,1.12-.36.19-.17.48-.05.67-.22.22,0,.4-.17.63-.14.37-.18.79-.22,1.17-.36.28-.1.56-.16.85-.23.1-.02.19-.05.28-.08.64-.23,1.32-.35,1.95-.62.25.03.46-.09.68-.16.2-.07.4-.17.61-.2.24-.03.44-.18.69-.15.3-.16.63-.21.95-.29.44-.11.86-.26,1.31-.3.25-.03.49-.16.75-.13.21-.2.51-.02.74-.19.06-.04.15-.03.23-.04.27-.01.56.04.81-.12.82,0,1.64,0,2.46,0,.23.14.5.08.75.13.23.04.44.15.67.22.45.15.86.39,1.21.72.16.15.32.3.46.44.1.2.19.38.28.55.09.16-.01.36.13.51.02.02.02.07.02.11,0,.48.02.96,0,1.43-.01.19-.1.38-.18.55-.12.27-.26.53-.4.79-.04.07-.07.14-.12.2-.16.18-.34.33-.45.55-.06.12-.18.22-.29.3-.62.45-1.26.88-1.94,1.22-.26.13-.52.28-.8.39-1.02.43-2,.93-2.98,1.43-.4.21-.81.41-1.19.65-.41.27-.85.49-1.24.79-.27.2-.54.39-.79.62-.21.19-.47.3-.65.51-.18.21-.4.39-.59.6-.27.31-.52.63-.63,1.05-.06.22-.17.44-.21.67-.03.23-.2.44-.13.69-.18.26-.05.58-.21.85-.05.07-.02.19-.02.29,0,.74,0,1.47,0,2.21,0,.16.01.31.08.46.06.14.03.31.04.47.02.25-.06.51.1.76.05.07.01.19.02.29,0,.18-.03.36.09.52.02.03.02.08.02.11,0,.22-.04.45.03.65.07.21.1.42.1.64,0,.18.15.32.12.51-.03.16-.05.33,0,.47.13.35.1.7.11,1.05.19.46.09.94.13,1.44.29.38.69.65,1.18.8.06.02.11.05.16.07.3.1.6.19.92.17.3-.02.6,0,.9,0,.16,0,.32-.02.48,0,.18.03.3-.09.45-.12.15-.02.31,0,.47-.07.14-.06.3-.07.45-.11.28-.09.57-.14.84-.24.26-.09.53-.14.79-.22.28-.09.54-.23.83-.29.23-.04.45-.15.68-.17.19-.17.48-.05.67-.22.38.02.73-.19,1.11-.14.14.02.27,0,.4-.07.22-.1.47-.03.71-.04.18.17.43.06.63.14.11.05.23.06.34.1.2.08.39.19.58.29.71.37,1.33.85,1.77,1.53.28.43.61.83.8,1.3.2.49.39.98.53,1.49.1.38.26.74.24,1.14,0,.2.15.36.12.57-.03.2,0,.4,0,.6,0,.08.01.16.05.23.1.17.04.35.06.51-.05.1-.1.19-.15.29-.02.01-.05.04-.09.06-.67.32-1.37.57-2.07.84-.22.08-.44.18-.66.24-.6.18-1.19.36-1.8.49-.21.04-.43.07-.63.13-.19.06-.4.05-.57.12-.23.1-.48.05-.69.12-.23.07-.46.1-.7.11-.18,0-.32.15-.51.12-.15-.02-.31-.01-.46.08-.07.05-.19.02-.29.03-.23.02-.48-.05-.7.11-.06.04-.16,0-.24.01-.29.02-.59-.05-.88.11-.09.05-.24,0-.36.02-.27.02-.55-.04-.82.1-.13.07-.31,0-.47.02-.37.03-.76-.08-1.11.11-.24,0-.48,0-.72.01-.27.01-.55-.05-.82.1-.08.04-.2.01-.3.01-.52,0-1.04,0-1.56,0-.21,0-.43-.04-.64.09-.07.05-.19.02-.29.02-.32,0-.64,0-.96,0-.18,0-.35-.02-.52.08-.09.05-.23.03-.35.03-.54,0-1.08,0-1.62,0-.23,0-.47-.05-.7.09-.09.05-.23.02-.35.02-.26,0-.52,0-.78,0-.1,0-.21,0-.29.04-.15.09-.31.07-.46.08-.28,0-.56,0-.84,0-.16,0-.31-.02-.46.07-.08.05-.19.04-.29.04-.24,0-.48,0-.72,0-.2,0-.39-.02-.58.09-.11.06-.27.02-.41.03-.27.02-.56-.06-.82.11-.04.03-.12,0-.18.01-.31.02-.63-.05-.94.11-.06.03-.16,0-.24.01-.27.02-.55-.03-.82.1-.13.06-.31.01-.47.02-.23.01-.47-.04-.7.1-.07.05-.19.02-.29.02-.7,0-1.4,0-2.1,0-.1,0-.23.03-.29-.01-.21-.16-.46-.07-.69-.15-.4-.15-.82-.26-1.24-.51-.19-.19-.41-.42-.61-.62-.21-.33-.32-.67-.4-1.01-.06-.23-.04-.46.01-.7.08-.42.28-.77.51-1.25,0,0,.11-.07.19-.16.32-.36.72-.61,1.13-.86.39-.23.79-.43,1.21-.6.42-.17.83-.35,1.25-.5.28-.09.53-.27.8-.39.25-.11.47-.29.76-.33.13-.02.24-.12.36-.19.07-.04.12-.11.19-.14.62-.27,1.16-.67,1.72-1.02.57-.35,1.13-.72,1.68-1.09.32-.22.67-.42.97-.66.29-.24.61-.44.88-.7.17-.16.36-.31.56-.43.19-.11.34-.27.5-.41.21-.18.43-.34.64-.52.19-.17.36-.36.59-.49.18-.11.31-.3.47-.47.02-.12.04-.26.07-.39.01-.06.07-.11.06-.16-.05-.38.17-.73.14-1.11-.02-.18.15-.32.12-.51-.03-.18.02-.35.1-.51.05-.1.01-.24.02-.35,0-.14-.02-.28.08-.4.02-.03.03-.07.04-.11,0-.28.01-.56.02-.84.17-.23.09-.5.11-.75.02-.25-.05-.51.1-.76.05-.07.01-.19.01-.29,0-.08,0-.16,0-.24,0-1.3,0-2.59,0-3.93Zm-27.27-14.69c.11.19.21.38.29.58.1.25.18.52.25.78.08.28.19.55.26.84.07.26.06.55.22.79-.04.23.12.41.14.63.02.21.14.4.19.61.05.21.08.42.16.62.09.2.1.42.17.62.26.8.54,1.59.92,2.34.4.78.9,1.49,1.56,2.06.07.06.16.12.24.17.51.38,1.09.61,1.7.78.3.08.61.17.92.17.66.01,1.32,0,1.98,0,.12,0,.23-.03.34-.07.68-.21,1.33-.48,1.95-.8.35-.18.68-.39.96-.69.27-.29.54-.57.79-.89.25-.33.48-.67.66-1.04.17-.37.43-.71.45-1.14.14-.17.02-.4.11-.57.12-.21.08-.42.09-.64,0-.2-.03-.4,0-.6.05-.29-.1-.54-.14-.81-.03-.2-.12-.41-.2-.61-.23-.51-.58-.93-.92-1.36-.4-.5-.94-.85-1.41-1.28-.03-.03-.07-.03-.11-.05-.77-.55-1.6-1-2.45-1.4-.33-.16-.69-.27-1.04-.41-.51-.21-1.05-.3-1.57-.44-.3-.08-.6-.2-.93-.14-.07.01-.16-.02-.23-.05-.09-.05-.19-.06-.29-.06-.5,0-1,0-1.5,0-.06,0-.13-.02-.18.01-.14.1-.3.11-.46.1-.18-.01-.32.17-.51.12-.47.14-.94.27-1.37.52-.19.11-.34.27-.53.37-.24.12-.41.3-.57.49-.02.15-.02.28.05.42Zm1.32,48.3c.16-.15.32-.29.5-.41.19-.13.26-.39.45-.54.11-.09.21-.19.29-.3.1-.12.18-.25.27-.39.22-.35.48-.68.66-1.04.33-.67.69-1.32.97-2.02.17-.44.34-.87.5-1.31.36-.99.65-2,1.04-2.98.13-.33.23-.66.38-.98.27-.57.56-1.13.84-1.69.03-.05.04-.12.07-.16.32-.4.63-.81.96-1.2.23-.27.49-.51.69-.81.24-.35.66-1.05.8-1.43.11-.31.09-.66.24-.96.02-.03.01-.08.01-.12,0-.12,0-.24,0-.36,0-.14.03-.28-.06-.4-.11-.13,0-.32-.14-.46-.06,0-.14-.03-.21,0-.37.11-.76.18-1.13.29-.79.23-1.55.54-2.3.86-.54.23-1.06.52-1.6.77-.54.25-1.01.62-1.56.84-.04.01-.06.05-.1.07-.29.2-.56.45-.88.59-.33.15-.6.38-.88.58-.71.5-1.41,1.01-2.02,1.63-.36.37-.73.74-1.1,1.1-.55.52-.91,1.18-1.3,1.82-.12.19-.23.41-.28.65-.04.23-.18.44-.22.66-.04.25-.19.48-.14.75-.14.21-.11.45-.12.69,0,.04.01.09,0,.12-.19.4-.09.82-.11,1.23,0,.1-.02.22.02.29.1.15.1.3.09.46-.03.34.18.65.15.99.22.56.37,1.16.77,1.64.09.26.35.38.47.6.29.51.77.78,1.24,1.05h2.58c.05-.04.1-.08.15-.12Zm3.35-21.49c.92-.28,1.66-.8,2.18-1.62.13-.2.26-.39.36-.61.1-.21.24-.4.29-.64.05-.21.18-.4.21-.6.04-.23.07-.46.12-.69.06-.23.02-.47.02-.71,0-.28-.02-.56,0-.84.02-.26-.06-.5-.13-.75-.2-.76-.66-1.38-1.17-1.95-.24-.28-.56-.5-.87-.7-.54-.35-1.08-.72-1.7-.93-.26-.09-.52-.18-.77-.29-.26-.11-.53-.14-.79-.21-.28-.07-.56-.21-.87-.15-.04,0-.09,0-.12-.02-.2-.15-.42-.09-.64-.1-.48,0-.96,0-1.44,0-.36,0-.69.18-1.05.14-.03,0-.07.04-.1.06-.41.14-.83.25-1.21.43-.33.15-.68.33-.91.66,0,.09,0,.19,0,.29,0,.11.04.19.09.28.02.05.02.11.03.17.04.48.17,1.05.35,1.65.14.45.3.89.47,1.32.14.37.34.71.5,1.06.16.36.38.69.59,1.02.44.7.96,1.34,1.55,1.93.62.62,1.33,1.1,2.12,1.49.36.18.75.23,1.11.36.16.06.36.02.53.02.34,0,.68,0,1.06,0,.07-.04.12-.08.17-.09Z"/>
      <path id="_5-京" data-name="5-京" class="cls-1" d="m248.74,60.12c.36-.04,1.75-.1,1.9-.04.38.17.8.2,1.15.45.29.2.6.37.9.55.1.06.21.12.3.18.34.22.69.35,1.1.36.12,0,.24.02.34.09.31-.44.4-.97.54-1.47.07-.26.12-.53.2-.79.01-.04.04-.08.04-.11-.05-.38.18-.73.13-1.11.18-.4.1-.82.12-1.23,0-.08,0-.17.04-.23.08-.13.08-.26.08-.4,0-.92,0-1.83,0-2.75,0-.14.02-.28-.08-.4-.02-.03-.03-.07-.03-.11,0-.22.02-.44-.02-.66-.03-.19-.14-.37-.11-.57,0-.06.02-.14,0-.18-.15-.21-.07-.46-.15-.69-.09-.24-.15-.48-.25-.72-.14-.35-.29-.68-.45-1.02-.03-.07-.1-.12-.13-.16-.37-.12-.68.11-1.01.12-.17.16-.45.01-.61.19-.2-.02-.38.12-.57.12-.23,0-.4.16-.63.14-.15-.01-.28.15-.45.11-.19-.05-.33.12-.51.12-.16,0-.32,0-.48,0-.08,0-.17,0-.23.04-.13.08-.27.07-.4.07-.08,0-.16,0-.24,0-.26,0-.54.05-.77-.02-.24-.07-.52-.04-.73-.2-.65-.07-1.19-.38-1.72-.73-.46-.3-.78-.73-.95-1.24-.08-.24-.23-.45-.27-.71-.04-.24-.07-.5-.19-.73-.03-.05-.03-.11-.03-.17-.01-.25-.02-.5-.1-.76-.07-.22-.02-.47-.02-.71,0-.18.02-.35-.08-.52-.05-.07-.03-.19-.03-.29,0-.28,0-.56,0-.84,0-.14.02-.28-.08-.4-.02-.03-.03-.07-.03-.11,0-.22-.02-.44,0-.66.01-.22-.18-.4-.12-.63.05-.21-.11-.37-.12-.57,0-.2.04-.4-.1-.57.03-.36-.18-.68-.14-1.05,0-.09,0-.21-.04-.29-.08-.13-.06-.27-.07-.4,0-.18.02-.35-.08-.52-.05-.08-.03-.19-.03-.29,0-.34,0-.68,0-1.02,0-.14,0-.28,0-.42.2-.21.06-.5.17-.74.1-.21.14-.45.28-.65.03-.05.05-.11.05-.12.5-.61,1.12-1,1.74-1.38.41-.25.83-.46,1.25-.67.26-.13.54-.23.81-.35.25-.1.47-.3.76-.31.3-.19.64-.31.97-.43.46-.17.92-.34,1.37-.53.58-.24,1.2-.37,1.75-.67.56-.12,1.06-.39,1.6-.57.68-.23,1.36-.5,2.05-.71.26-.08.52-.16.79-.22.26-.06.52-.16.79-.23.32-.09.63-.19.96-.27.4-.1.79-.2,1.19-.31.47-.13.97-.15,1.42-.34.32.05.61-.17.93-.14.26-.12.54-.12.81-.13.22-.21.55-.02.79-.21.06-.05.19-.01.29-.02.18,0,.35.01.52-.09.09-.05.23-.02.35-.03.16,0,.32.02.46-.08.04-.03.11-.03.17-.04.26,0,.52-.01.78-.02.25-.18.54-.09.81-.1.26-.01.52,0,.78,0,.25,0,.51.04.76-.1.09-.05.25-.05.35,0,.32.16.66.08,1,.1.27.02.54-.01.82.1.23.09.51-.02.75.14.41-.03.76.19,1.13.29.38.11.74.26,1.05.52.12.1.28.14.46.23.18.19.39.4.6.62.1.1.18.2.24.33.08.17.11.33.04.51-.12.33-.23.66-.33,1-.09.34-.27.65-.37.98-.07.22-.2.43-.34.62-.16.21-.24.45-.39.66-.29.38-.54.77-.88,1.11-.11.11-.22.22-.29.37-.07.14-.19.27-.32.34-.25.14-.42.36-.64.53-.52.42-1.05.83-1.6,1.21-.53.37-1.05.76-1.59,1.12-.46.31-.85.7-1.32.99-.07.04-.12.11-.17.16-.34.34-.68.68-1.04,1.04-.01.21,0,.45,0,.69,0,.24,0,.48,0,.72,0,.06,0,.12,0,.18.07.71-.18,1.36-.4,2-.12.33-.33.63-.53.92-.3.43-1.03,1.27-1.42,1.52-.39.25-.64.65-1.06.85-.07.03-.13.09-.19.13,0,.26,0,.48,0,.7,0,3.47,0,6.94,0,10.4,0,.23.05.47-.09.7-.05.07-.02.19-.02.29,0,.44,0,.88,0,1.32,0,.18,0,.35-.08.52-.06.13-.03.31-.04.47-.02.25.06.52-.11.75-.02.03-.01.08-.01.12,0,.31.03.63-.12.93.06.34-.16.65-.13.99-.15.3-.14.65-.22.97-.09.32-.2.63-.3.95-.12.39-.26.78-.44,1.15-.36.74-.82,1.4-1.47,1.95-.22.11-.47.24-.71.36-.38.18-.76.32-1.19.29-.18-.02-.36,0-.55,0-.08-.04-.17-.09-.26-.11-.72-.18-1.35-.53-1.95-.94-.47-.32-.94-.66-1.34-1.08-.19-.2-.43-.35-.63-.53-.21-.19-.38-.42-.6-.58-.3-.2-.52-.49-.81-.69-.41-.29-.74-.66-1.1-1-.38-.36-.63-.8-.9-1.24-.26-.41-.31-.88-.46-1.32.04-.32-.17-.6-.13-.93.04-.31,0-.64,0-.99Zm1.64-22.79s-.05.06-.05.08c-.21.42-.43.84-.4,1.34,0,.04,0,.08-.02.11-.18.42-.06.86-.07,1.29.13.15.1.34.1.51,0,.12.04.23.09.34.08.18.1.38.16.56.14.43.34.83.6,1.21.31.44.69.76,1.22.87.56.12,1.15.11,1.72,0,.4-.07.79-.23,1.16-.4.45-.21.87-.45,1.29-.7.39-.23.75-.5,1.12-.75.67-.45,1.32-.93,2.07-1.24.03-.01.06-.05.11-.1.03-.22.15-.44.18-.71.03-.27.06-.55.16-.8.11-.25,0-.51.12-.75.13-.26.05-.55.06-.82.01-.26,0-.52,0-.78,0-.28,0-.56,0-.84-.14-.07-.26-.13-.38-.2h-.73c-.23-.17-.5-.09-.75-.11-.16-.01-.32.02-.46-.08-.06-.04-.15-.04-.23-.04-.38,0-.76,0-1.14,0-.39,0-.79-.05-1.18.1-.14.05-.32.03-.48,0-.2-.03-.33.13-.51.12-.24-.01-.46.06-.69.11-.58.13-1.14.27-1.66.57-.22.13-.46.23-.68.34-.26.26-.51.51-.75.75Zm-19.37-12.21c.03.28-.14.54-.13.81.02.65-.06,1.3.09,1.95.16.7.2,1.02.56,1.72.49.95.76,1.11,1.41,1.63.67.32,1.33.69,2.12.64.18-.01.36,0,.54,0,.08,0,.16,0,.24-.02.63-.22,1.25-.46,1.82-.82.22-.14.39-.33.6-.47.23-.16.44-.34.63-.53.44-.44.88-.87,1.31-1.31.1-.1.19-.21.31-.28.79-.52,1.59-1.02,2.43-1.45.61-.32,1.24-.61,1.85-.92.11-.05.21-.14.32-.15.23-.03.4-.16.6-.25.2-.08.4-.15.6-.24.69-.33,1.42-.55,2.13-.84.18-.07.36-.17.54-.23,1.09-.36,2.19-.72,3.28-1.08.28-.09.56-.16.84-.24.28-.08.57-.15.84-.24.37-.13.77-.16,1.12-.35.37-.03.72-.17,1.08-.25.36-.08.73-.14,1.08-.24.26-.07.53-.11.8-.16.34-.07.67-.22,1.03-.2.06,0,.13,0,.17-.04.16-.11.35-.08.52-.08.19,0,.32-.15.51-.13.36.05.69-.18,1.05-.12.23-.16.5-.1.75-.11.08,0,.18.02.24-.02.22-.15.46-.08.7-.1.1,0,.21.01.29-.04.17-.1.35-.07.52-.08.18,0,.38.04.53-.03.22-.1.43-.08.64-.09.18,0,.36,0,.54,0,.1,0,.21,0,.29-.04.15-.09.31-.07.46-.08.26,0,.52,0,.78,0,.14,0,.27,0,.4-.07.08-.05.19-.04.29-.04.28,0,.56,0,.84,0,.1,0,.22.03.3-.01.24-.16.5-.09.76-.1.94,0,1.88,0,2.82,0,.14,0,.3.03.41-.03.15-.08.3-.08.46-.08,1.82,0,3.64,0,5.45,0,.1,0,.22-.03.29.01.24.15.5.08.76.1.16.01.33-.02.47.03.45.16.89.1,1.33-.03.11-.04.22-.08.33-.12.53-.19.96-.51,1.29-.98.29-.41.47-.86.69-1.27-.35-.96-.91-1.73-1.75-2.41-.06-.03-.22-.07-.34-.17-.31-.26-.68-.38-1.05-.52-.24-.09-.48-.16-.72-.24-.22-.07-.48.02-.69-.15-.26,0-.52,0-.78,0-.16,0-.31-.02-.46-.07-.26-.09-.55-.04-.83-.03-.19.15-.42.09-.63.1-.26,0-.52,0-.78,0-.1,0-.21,0-.29.04-.15.09-.31.07-.46.08-.14,0-.3-.04-.42.02-.27.13-.54.09-.82.11-.08,0-.17,0-.23.04-.15.1-.31.07-.46.08-.12,0-.26-.02-.35.03-.19.11-.39.08-.58.09-.12,0-.27-.04-.35.02-.23.14-.46.08-.7.1-.08,0-.18-.02-.24.01-.26.16-.54.09-.82.11-.06,0-.13-.01-.18.01-.22.15-.46.09-.7.1-.32,0-.64,0-.96,0-.18,0-.34,0-.52.07-.26.09-.57.1-.82,0-.24-.08-.47-.07-.7-.08-.2,0-.4,0-.6-.01-.2-.17-.47-.05-.68-.16-.21-.11-.47-.05-.68-.19-.42-.05-.79-.22-1.14-.45,0-.35,0-.68,0-1.02,0-.08-.02-.17.02-.24.15-.28.16-.6.26-.9.37-1.13.33-.99.33-1.78,0-.14,0-.28,0-.38-.05-.13-.09-.22-.12-.31-.32-1.05-.86-1.77-1.8-2.41-.47-.33-.99-.56-1.52-.78-.18-.07-.36-.21-.54-.22-.22-.01-.41-.13-.63-.15-.21-.02-.43-.07-.62-.15-.22-.09-.45,0-.64-.09-.33-.15-.66-.08-1-.1-.14-.01-.29.01-.41-.04-.14-.06-.27-.07-.4-.07-.32,0-.64,0-.96,0-.1,0-.22-.02-.29.03-.19.12-.39.08-.58.08-.24.01-.48.01-.72.02-.15.13-.34.12-.51.1-.19-.02-.33.14-.51.12-.29-.03-.53.16-.81.15-.73.24-1.44.51-2.12.88-.42.23-.78.53-1.15.82-.28.22-.43.56-.64.84-.12.16-.21.32-.27.52-.04.13-.12.25-.19.39,0,.08,0,.18,0,.28,0,.08-.05.15-.07.22-.02.1-.04.19-.05.29-.03.4.07.78.19,1.15.05.15.08.3.16.44.33.58.78,1.05,1.32,1.43.86.62,1.78,1.15,2.63,1.79.53.41.65.56,1,1.14.09.15.1.29.09.45-.08.12-.15.23-.23.35-.16.22-.33.44-.5.66-.13.18-.35.26-.51.4-.3.29-.66.5-1.02.7-.72.41-1.47.76-2.24,1.07-.27.11-.55.19-.84.26-.44.1-.87.2-1.3.33-.39.12-.8.16-1.2.26-.22.06-.46.04-.7.11-.24.07-.5.04-.75.13-.14.05-.34-.02-.47.05-.18.09-.35.08-.52.09-.1,0-.22-.03-.29.02-.2.14-.42.09-.64.1-.08,0-.17,0-.23.03-.16.11-.34.08-.52.09-.1,0-.22-.03-.29.02-.18.12-.39.12-.58.09-.23-.03-.41.15-.63.13-.36-.03-.69.18-1.05.13-.29.22-.68,0-.97.22-.3-.05-.58.09-.87.13-.13.02-.27.12-.39.1-.24-.03-.42.11-.63.14-.23.02-.47.07-.68.16-.53.21-1.09.31-1.61.54-.52.23-1.06.41-1.57.7-.24.35-.26.74-.43,1.07Zm50.29,28.16c-.27-.27-.51-.57-.82-.79-.53-.38-1.11-.68-1.72-.9-.91-.32-1.85-.52-2.62-.6-.04,0-.09,0-.12-.02-.18-.14-.38-.09-.58-.1-.08,0-.18.02-.24-.01-.26-.16-.54-.09-.82-.11-.14,0-.28,0-.4-.07-.06-.04-.15-.04-.23-.04-.51-.02-1.03.03-1.54-.11-.22-.06-.48-.03-.72-.01-.24.02-.46-.08-.69-.11-.24-.03-.48-.03-.72,0-.27.03-.5-.11-.75-.12-.3-.01-.6,0-.89,0-.3.31-.66.55-.78.99,0,.42,0,.86,0,1.3,0,.29.02.58.1.87.11.39.22.79.39,1.16.3.66.66,1.3,1.07,1.9.41.6.76,1.24,1.25,1.79.1.27.36.42.51.65.29.42.63.81.98,1.18.36.4.76.76,1.14,1.15.49.5.99.97,1.63,1.27.22.26.55.32.84.4.3.07.6.17.93.16.26,0,.5-.09.75-.13.38-.08.76-.17,1.11-.36.22-.13.45-.24.69-.35.37-.16.65-.44.97-.67.08-.06.15-.13.2-.22.29-.49.69-.9.97-1.4.37-.65.73-1.42.86-2.17.03-.16.14-.28.13-.45-.01-.19-.04-.4.1-.57,0-.34.02-.68-.01-1.01-.01-.12-.12-.25-.09-.39.03-.21-.09-.38-.11-.57-.02-.21-.1-.38-.19-.55-.11-.23-.23-.46-.38-.76-.06-.05-.13-.12-.21-.19Zm-40.08,13.37c.52-.3.94-.71,1.21-1.26.33-.69.69-1.36.82-2.13.17-.29.2-.63.29-.95.09-.32.2-.63.3-.94.16-.46.29-.93.56-1.36.21-.34.38-.69.77-.87.04-.02.06-.09.09-.13-.02-.05-.04-.09-.05-.12-.15-.4-.58-.59-.76-.98-.05-.12-.18-.21-.3-.29-.11-.08-.24-.13-.34-.24-.24-.27-.56-.44-.86-.61-.31-.17-.65-.27-.98-.4-.35-.14-.7-.12-1.05-.12-.24,0-.48.02-.72,0-.23-.03-.41.16-.63.13-.07,0-.15.05-.22.08-.72.31-1.35.72-1.9,1.29-.39.41-.61.92-.94,1.35,0,.23-.18.4-.23.6-.04.17-.04.35-.13.51.04.25-.14.44-.13.69.02.58,0,1.15,0,1.73,0,.28.09.54.19.79.16.4.36.79.58,1.16.19.32.41.63.66.91.49.56,1.09.97,1.77,1.27.14.06.3.09.48.14h.88c.25-.09.46-.15.65-.25Z"/>
      <path id="_4-学" data-name="4-学" class="cls-1" d="m210.96,47.85c.46,2.41-2.9,3.07-4.91,3.46-.32.06-.61.12-.86.18-1.25.29-3.01.8-3.85,1.05.05.91.12,3.1-.03,7.21-.1,5.64-2.89,11.21-4.84,13.37-1.16,1.08-2.86,1.54-4.34,1.54-1.2,0-2.26-.3-2.78-.81-.46-.45-2.5-1.05-4-1.49-.78-.23-1.55-.46-2.17-.67-4.13-1.43-4.66-1.8-4.6-2.5.02-.22.16-.61.85-.72.92-.14,2.83-.1,5.03-.05,1.1.02,2.25.05,3.3.05,2.71,0,4.45-1.06,6.93-4.18,1.93-2.44,2.31-8.09,2.39-10.18-.26.07-.59.17-.98.3-.16.06-.33.13-.51.2-1.11.45-2.25.91-4.26.63-2.5-.34-4.92-1.66-6.31-3.46-.95-1.23-1.33-1.71-1.03-2.27.29-.54.95-.5,1.87-.45,1.9.2,5.21-.32,6.98-.6,1.34-.22,3.33-.67,4.24-.88-.01-1.41-.09-3.38-.25-3.98-.15-.25-.4-.47-.62-.66-.35-.31-.71-.64-.66-1.12.02-.19.12-.47.48-.69.66-.54,1.64-.92,1.98-1.05.23-.2.92-.81,1.6-1.57-.54.15-1.16.36-1.55.49l-.33.11c-1.87.54-4.61,1.71-5.08,2.1-.22.15-.42.3-.63.47-.59.46-1.26.99-1.96,1.17-1.15.19-1.55-.35-2.34-1.82l-.02-.04c-.47-1.06-.1-1.73.16-2.04.63-.74,1.81-.85,2.71-.63.62.16,2.75-.79,4.16-1.41.88-.39,1.71-.75,2.39-.99,2.08-.76,4.41-.73,7.49-.43.79.05,1.9.22,2.13,1.07.22.83-.49,1.69-2.45,2.99-1.21.96-3.41,2.44-4.24,3l.66,4.48c.84-.17,2.3-.44,3.27-.47-.04-.26-.07-.62.19-.93.32-.38.83-.38,1-.38h.15c1.42,0,5.17-.02,5.66,2.62Zm15.05-15.85c0,.5-.22,2.15-2.75,2.21-.84,0-2.28.06-3.96.14-2.98.13-6.68.29-8.61.16-.87-.07-1.51-.57-1.61-1.25-.1-.67.28-1.67,2.65-2.57,1.34-.49,2.13-.77,2.6-.93-.11-.04-.29-.08-.54-.08-6.2-.36-8.45.24-13.37,1.56l-1.62.43c-8.77,2.51-17.25,5.77-19.29,7.42-.42.39-.82.89-1.21,1.37-.73.9-1.36,1.69-2.22,1.77-.05,0-.1,0-.14,0-.38,0-.75-.15-1.1-.44l-.23-.21c-1.24-1.12-2.52-2.28-1.04-4.99.52-.9.96-1.57,1.35-2.16.76-1.16,1.26-1.92,1.64-3.24,0-.02,1.07-4.3,2.42-4.36.3-.01.66.14.82.62.59,1.8.36,3.01.17,4.07-.13.73-.26,1.41-.14,2.28l.05.52c.04.5.09,1.05.16,1.28.11-.03.34-.11.79-.36l.17-.09c1.24-.69,2.96-1.65,6.3-2.96-.77-.17-1.56-.92-2.03-1.73-.26-.5-.47-.84-.65-1.13-.37-.6-.67-1.07-.75-1.94-.08-.92.14-1.24.46-1.61.11-.12.21-.23.31-.44.17-.37.15-.4-.22-.94-.11-.16-.23-.35-.37-.57-.59-.83-.46-2.04-.31-3.32.06-.54.12-1.1.12-1.62,0-.37,0-1.01-.02-1.81-.06-3.92-.1-7.85.13-9.06.15-.76.56-.98.87-1.04.81-.14,1.55.83,1.92,1.43l.07.17c.03.11.73,2.81.73,4.28,0,.61.13.84.18.91l.31.05.8,3.26c.25-.35.56-1.03.6-1.47.05-.6.21-1.18.38-1.79.17-.6.34-1.23.43-1.95.08-.52.12-1.04.17-1.53.08-.87.15-1.7.36-2.39.11-.49.51-.81,1.01-.81.76.02,1.57.9,1.81,1.91.24-.06.55-.09.93-.03.14.03.24.05.32.06.1-.22.26-.47.62-.74.32-.24.7-.48,1.13-.41.44.07.67.41.85.68.06.09.12.17.18.26.09-.19.2-.46.26-.7l.04-.1s1.09-2.36,1.37-4.26c.2-1.75.99-3.1,2.17-3.68.84-.41,1.88.18,2.43.57,1.08.77,2.1,2.06,1.94,3.2-.22,1.61-1.64,3.78-2.78,5.14-.9,1.19-1.19,1.84-1.01,2.3l.04.14c.05.31.97,1.09,1.41,1.47.33.28.62.53.82.74.25.07,1.34-.02,2.3-.23l3.77-.64c.11-.4.32-.99.74-1.54.28-.36.44-1.13.23-1.58-.07-.15-.19-.31-.57-.34-1.02-.06-1.85-.52-2.28-1.24-.33-.56-.36-1.23-.08-1.78.57-.99.93-1.13,2.95-1.63.71-.16,1.32-.44,1.96-.74.97-.45,1.98-.92,3.35-.99h.21c1.88-.1,3.12-.17,3.87,1.81.77,2.45-4.51,7.4-4.74,7.61-1.31,1.22-2.08,3.69-2.7,5.68-.13.43-.26.83-.38,1.2-.5,1.56-1.5,5.25-1.99,7.03,2.67-.26,4.86-.41,6.71-.31,5.04.23,8.35,3.75,8.32,5.98Zm-18.75-13.52c.81.09,1.23-.52,1.33-.86.06-.2.06-.42-.05-.48l-.62-.26c-.81-.34-1.3-.55-1.98-.7-.51-.12-1.32.29-1.48.45-.06.08-.2.26-.39.5-.6.75-1.72,2.15-2.32,3.25-.32.53-.63.87-.85,1.12q-.44.49,0,1.15l.59.94c.88,1.4,2.08,3.31,2.41,3.73.28.09,1.09-.04,2.43-.4l.2-.05c.03-.38-.16-1.28-.27-1.8-.2-.97-.31-1.54-.2-1.94.17-.57.67-.84,1.05-1.03.03-.01.06-.03.09-.05-.3-.27-.92-.57-1.31-.77-.73-.37-1.18-.59-1.18-1.1s.2-.97.55-1.28c.45-.4,1.12-.55,1.98-.44Zm-18.65,13.22c.44-.16.9-.33,1.39-.5-.21-.31-.3-.64-.33-.87,0-.13.15-4.83.19-6.64-.28.75-.8,1.19-1.17,1.42,0,1.13.02,4.48.1,5.61.03.45-.06.76-.19.98Zm4.58-3.82c-.04.28,0,.5.15.69.16.22.8.3,1.41.02.38-.18.8-.5.64-1.07-.1-.34-.25-.57-.45-.68-.4-.21-1.01,0-1.21.08l-.04.02c-.13.1-.42.51-.49.95Zm2.85-16.31c-.46-.45-.96-.69-1.26-.69-.08,0-.15.02-.2.06-.48.32-.63.65-.64.67l-.05.09s-.92,1.48-.92,2.89c0,.33-.02.81-.05,1.37-.18,3.43-.06,5.3.37,5.56.31-.04.36-.13.47-.63.11-.5.36-1.55,1.81-1.38.39.04.74.1,1.07.15.43.07.96.15,1.19.12.01-.1.03-.18.04-.27.1-.64.14-.88-.48-1.27-.29-.23-.55-.29-.82-.36-.97-.24-1.51-.71-1.19-2.3.11-.51.24-1.01.37-1.48.28-1.01.59-2.17.28-2.51Z"/>
      <path id="_3-大" data-name="3-大" class="cls-1" d="m154.63,47.02c-1.7-.85-9.31-4.46-12.42-5.89.29-.73.55-1.47.78-2.23.66-.27,1.67-.67,2.84-1.13,2.38-.94,5.34-2.11,7.21-2.94,1.58-.71,3.29-1.25,4.81-1.72,1.9-.6,3.41-1.07,4.08-1.68.84-.65,1.48-2.06-.2-5.11-.84-1.55-4.12-2.49-6.74-1.36-.49.21-1.05.46-1.66.73-2.07.93-4.65,2.08-6.27,2.29-.48.05-1.01.09-1.53.14-.3.03-.59.05-.88.08.16-1.69.31-2.8.45-3.29.11-.43.41-.88.76-1.41.84-1.28,2-3.03,1.8-6.29-.26-4.45-3.21-5.09-4.46-5.36-.13-.03-.24-.05-.34-.08-.94-.25-2.13-.29-2.79-.3-.07-.03-.15-.08-.26-.13-.59-.31-1.47-.78-2.15-.31-.66.46-.59,1.47-.57,1.78.01.34.04.75.06,1.22.18,3.03.51,8.68-1.45,16.97-.15.63-.3,1.19-.44,1.74-2.1.78-5.24,1.65-7.48,1.81-3.56.18-3.97.09-5.48-.27-.93-.22-1.35.13-1.54.46-.57,1.01.63,2.61,1.04,3.1,1.28,1.35,6.03,3.87,8.46,3.97.72,0,1.5.05,2.29.12-1.4,3.63-2.39,5.36-2.96,6.15-.29.34-.61.73-.97,1.17-2.65,3.24-7.08,8.67-11.03,7.04-.51-.27-1.12-.09-1.42.41-.19.33-.66,1.53,1.47,3.26,2.57,2.01,8.33.72,12.59-1.33,4.06-2.05,7.86-6.87,8.36-8.68.2-.63.91-2.24,1.74-4.11l.45-1.02c.22.12.44.24.64.34.34.18.63.33.84.46,1.26.83,11.37,12.07,12.78,13.87.33.42.7,1,1.1,1.61,1.2,1.85,2.34,3.6,3.57,3.6.03,0,.06,0,.09,0,.54-.04,1.11-.53,1.68-1.45,1.11-1.8,2.25-5.4,1.51-7.51-1.04-2.49-6.34-7.67-8.34-8.72Z"/>
      <path id="_2-苏" data-name="2-苏" class="cls-1" d="m72.23,17.85s.02-.05.03-.08c0-.66-.11-1.38-.8-2.86-1.34-2.75-1.1-4.84-.98-5.96.02-.22.05-.4.05-.55-.02-.36.15-.68.45-.84,1.05-.56,3.98,1.18,5.1,2.3.9.85,1.86,2.36,2.64,4.15,1.73.52,5.11-.52,7.61-1.28,1.23-.38,2.31-.71,3.11-.85.98-1.46,3.07-4.64,3.51-7.7.43-3.02.5-3.49,2.08-3.99l.36-.11c2.04-.48,4.4,1.36,5.19,4,.48,1.73-.17,3.86-.86,5.42.8.11,1.62.64,1.73,1.4.05.32.02,1.11-1.26,1.57-.37.15-1.05.41-1.91.73-.82.31-1.8.68-2.82,1.08-1.99,1.62-4.56,4.35-6.63,6.55-.55.57-2.21,2.27-3.44,1.45-.96-.64-.85-2.39-.55-3.33.15-.49.63-1.34,1.16-2.21-1.22.36-2.55.97-4.44,2.14-.37.24-.72.5-1.08.75-.29.2-.58.41-.88.61-.13,1.05-.64,4.36-1.91,4.36-.62,0-2.68-.14-4.08-1.88-1.47-.2-3.18-.64-3.54-1.64-.09-.26-.17-.77.31-1.34.76-.89,1.52-1.59,1.84-1.88Zm35.32,40.13c0,.72-.37,1.66-1.18,2.13-.66.38-1.82.57-3.61-.67-3.2-2.06-7.07-4.24-8.25-4.41l-.52-.13c-.77-.2-1.87-.47-2.47-.37,0,7.54,0,15.91-.1,17.24-.12,1.04-.47,1.65-1.06,1.83-.11.03-.21.05-.33.05-.81,0-1.81-.84-3.16-2.66-3.33-3.74-3.52-5.22-3.41-6.89l.15-2.43.99,2.2c.87,1.95,1.8,3.18,2.27,3.5.27-1.11.68-4.83,1.2-11.06.07-.78.11-1.32.13-1.47l.04-.4c.11-1.12.25-2.49.38-3.93-.98,1.97-1.99,3.97-2.98,5.66-.7,1.27-2.58,4.68-5.62,2.99-.27-.1-1.03.11-1.64.27-.94.26-1.82.5-2.31-.12-.13-.14-.31-.37-.5-.62-.39-.52-.87-1.16-1.32-1.2-.1,0-.18.09-.45.51-.19.31-.43.7-.84.94-.57.34-.66.74-.84,1.69l-.03.14c-.26.93-.79,1.5-1.4,1.56-.48.05-.92-.25-1.17-.78-.17-.31-.29-.45-.53-.72-.2-.22-.46-.51-.84-1.01-1.25-1.2-.81-3.23-.8-3.32l.15-.7c-.17.15-.34.26-.52.35-.54.26-1.08.26-1.43,0-.27-.21-.39-.54-.35-.91-.02-.36-.63-2.19-3.44-8.64-.18-.42-.31-.72-.37-.86-.41-.77-.06-1.57.5-1.94.57-.37,1.27-.24,1.61.3.25.53.46,1,.67,1.48.95,2.14,2.03,4.55,2.83,5.5.16-.07.47-.3.69-.46.26-.2.53-.4.81-.57l.03-.02c.2-.31.33-1.76-.24-2.66-.25-.36-.32-.72-.19-1.05.2-.54.77-.66,1.36-.78.5-.1,1.11-.23,1.38-.57.45-.59-.33-1.76-.57-2.05l-.17-.21v-.15c-.11,0-.38.06-.86.3-2,1.01-2.76.53-3,.29l-.18-.19v-.66c-.07-.23-.06-.47.02-.7.32-.91,1.74-1.59,4.05-2.6.53-.23,1.05-.46,1.5-.68.13-.06.27-.12.42-.18-.23-.05-.4-.16-.52-.29-.34-.36-.36-.95-.05-1.45.39-.62,2.06-2.67,3.45-3.71-.28-.05-.64-.1-.98-.12-.35.19-1.28.72-1.77,1.17-.14.11-.26.22-.4.33-.91.78-2.44,2.08-3.88,1.75-.58-.09-.81-.49-.89-.72-.29-.81.26-2,1.91-4.11.59-.69,1.06-1.21,1.64-1.86.41-.45.87-.97,1.46-1.64.44-.57.89-.77,1.34-.6.6.24.81,1.14.87,2.07.89-.13,2.37-.1,3.67,1.14.51.48.75,1.11.69,1.82-.2,2.54-4.13,5.24-4.43,5.44,1.96-.62,4.44-1.17,6.62-1.17.99,0,1.65.33,1.96.99.26.55.21,1.2.03,1.81l.37-.18c.08-.04,2.07-.98,3.92-.98.72,0,2.27-1.07,3.4-2.32l.03-.19c.06-.39.12-.77.12-.95.23-1.86,1.13-2.05,1.51-2.05h0c.53,0,1.06.38,1.33.89.78.05,1.66.43,2.46,1.06.42.35.66.82.71,1.37.12,1.23-.7,2.87-2.64,5.3-.82.97-1.65,2.32-2.46,4.04v6.31c1.81-.42,5.77-.99,8.81-.21,4.1,1.17,7.22,5.27,7.22,6.87Zm-33.52-17.29c-.1.09-.31.18-.54.29-.18.08-.52.24-.65.36.09.23.19.56.29.92.13.46.39,1.39.61,1.62.5.17,1.58-.01,1.75-.26.14-.35.45-.76.99-1.46.46-.59,1.46-1.87,1.66-2.48-.95-.06-3.67.75-4.1,1Zm-6.43,15.01l.63.39s1.21.75,1.92,1.4c.16.09,1.03-.16,1.75-.54.5-.57,2.25-2.53,3.24-2.95,1.26-.4,2.95-.31,4.06,1.11.45.63.63.76.7.77.23.03.91-.63,1.15-.84,1.67-1.36,5.74-8.71,4.87-10.62-.45-1.04-2.33-3.67-3.02-4.6l-.29-.39c-.27.71-.65,1.3-.78,1.49-.05.07-4.13,5.82-5.05,8.17-1.26,2.61-1.87,3-2.96,2.85-.25-.04-.44-.07-.75.06-.39.19-.66.42-.94.66-.52.44-1.05.9-2.28,1.12-.5.07-.89.06-1.18.05-.15,0-.32,0-.4,0,.01.03-.02.16-.04.48-.04.58-.31,1.04-.64,1.37Zm27.75-35.57c-1.22,0-2.88,1.31-4.93,3.02-.6.5-1.12.93-1.48,1.18l-.05.03c-1.23,1.02-3.23,2.64-3.63,2.89-.5.23-.86.93-.96,1.87-.1,1.02.14,2.38,1.13,3.13.33.25.72.36,1.13.36,1.35,0,2.96-1.14,3.94-1.83.22-.15.38-.27.51-.34.97-.59,5.01-2.83,5.89-3,.96-.17,2.31-.88,2.91-1.85.3-.48.4-1,.27-1.53-.46-1.58-3.75-3.79-4.73-3.93Zm-34.51,40.73c-.54.35-1,.65-1.51,1.17-.32-.08-.97-1.35-1.21-1.83-.33-.65-.51-.99-.73-1.18-.28-.25-.62-.3-.91-.14-.91.49-.78,3.12-.74,3.69.17,1.24,1.1,3.83,2.37,4.59.26.15.52.23.78.23.2,0,.39-.04.59-.13,1.16-.57,1.13-1.58,1.1-2.19,0-.26-.02-.51.08-.74.29-.87.84-1.46,1.49-2.15.5-.53,1.06-1.13,1.54-1.92l1.93-3.16-2.8,2.31c-.85.7-1.45,1.09-1.99,1.44Z"/>
      <path id="_1-江" data-name="1-江" class="cls-1" d="m5.48,13.53c-.53-1.31-1.13-2.79-.05-3.47,1.15-.68,4.55-1.44,7.83.5,2.76,1.69,5.05,6.08,5.05,7.62v.02c-.06,1.89-1.74,3.86-3.38,4.97-1.16.79-2.3,1.19-3.3,1.19-.58,0-1.1-.14-1.54-.42-3.32-2.03-3.82-5.64-3.82-7.61,0-.86-.42-1.89-.79-2.81Zm.33,28.45c.32.12.63.18.95.18.56,0,1.12-.18,1.69-.55,1.82-1.29,3.03-3.06,3.33-4.85.22-1.3-.04-2.59-.73-3.69-1.27-2.43-5.36-3.52-7.64-3.64-1.47-.07-1.87.24-2.05.53l-.02.03c-.7,1.25-1.16,2.87.22,6.25,1.35,3.3,2.74,5.18,4.24,5.75Zm6.81,3.36c-1.41,1.14-6.29,4.69-8.92,6.6l-1.14.83c-2.18,1.43-3.03,4.91-2.34,9.57.38,2.21,1.27,2.95,1.95,3.17.18.06.38.1.6.1.88,0,2.14-.56,3.81-2.66,2.57-3.32,3.47-7.45,4.01-9.92.05-.23.1-.44.14-.64.55-.84,3.86-6.06,3.01-7.13-.19-.24-.54-.41-1.13.09Zm34.42.55c-1.06-2.19-1.76-3.64-3.11-3.93-1.32-.27-4.62-.09-7.04.04l-1.03.05c-.97.07-1.77.04-2.36.02-.02,0-.04,0-.06,0,.07-1.55.17-3.46.27-5.43.13-2.7.27-5.53.37-7.71,1.12-.28,1.97-.84,2.2-1.11.19-.22,1.46-1.05,2.21-1.54.46-.3.89-.58,1.24-.82.49-.37,1.08-1.19,1.77-2.15.8-1.12,1.71-2.38,2.57-3.07,1.19-.97,1.51-2.77,1.3-4.14-.21-1.32-.89-2.26-1.81-2.52-2.23-.72-11.33,2.75-13.71,3.8-.91.4-1.89.6-2.83.79-2.04.41-4.15.84-4.51,3.61-.34,3.13,2.19,4.38,4.88,5.69.51.25,1.04.51,1.57.79.58.3,1.19.6,1.83.77-.05,1.45-.27,3.96-.92,6.34-.51,2.11-1.41,4.79-2.33,6.92-.27.04-.52.13-.74.21-.09.03-.18.06-.27.09-2.12.68-4.29,2.48-6.04,3.94-.91.75-1.69,1.4-2.12,1.59-1.59.66-3.43,2.58-3.64,4.54-.02.35.1.69.35.95.6.63,2.17.84,3.86.84,1.93,0,4.02-.27,5.06-.51,2.83-.65,12.03-2.24,15.01-2.24.51,0,1.13.03,1.82.06,3.81.17,6.79.17,7.56-1.42.3-.62.23-1.34-.2-2.16-.44-.84-.81-1.61-1.14-2.29Z"/>
    </g>
  </g>
</svg>