<?xml version="1.0" encoding="utf-8"?>
<!-- Generator: Adobe Illustrator 27.2.0, SVG Export Plug-In . SVG Version: 6.00 Build 0)  -->
<svg version="1.1" id="图层_1" shape-rendering="crispEdges"
	 xmlns="http://www.w3.org/2000/svg" xmlns:xlink="http://www.w3.org/1999/xlink" x="0px" y="0px" viewBox="0 0 440 116"
	 style="enable-background:new 0 0 440 116;" xml:space="preserve">
<style type="text/css">
	.st0{fill:#535353;}
</style>
<g>
	<polygon class="st0" points="208,6 208,5 208,4 207,4 206,4 206,5 206,6 207,6 	"/>
	<path class="st0" d="M232,23v1v1h1h1v1v1h1h1v1v1h1h1v1v1h1h1v1v1h1h1v1v1h-1v1v1v1v1h1h1h1h1v-1v-1h-1h-1v-1v-1h1h1h1h1v1v1v1v1v1
		v1v1v1h1h1h1h1v-1v-1h-1h-1v-1v-1h1h1v-1v-1h1h1v-1v-1h1v-1h1h1h1h1h1v1v1v1v1h1h1h1h1v-1v-1h-1h-1v-1v-1h1h1v-1v-1v-1h1h1h1h1v1v1
		h1h1h1h1h1h1h1h1h1h1h1h1h1h1v-1v-1h-1h-1h-1h-1h-1h-1v-1v-1h1h1h1h1h1h1h1h1h1h1v-1v-1v-1v-1v-1v-1v-1v-1v-1h-1h-1v-1v-1h-1h-1h-1
		h-1h-1h-1h-1h-1h-1h-1h-1h-1h-1h-1h-1h-1v1v1h-1h-1v1h-1h-1h-1h-1v-1v-1h-1h-1h-1h-1h-1h-1h-1h-1h-1h-1h-1h-1h-1h-1h-1h-1h-1v1v1
		h-1h-1h-1h-1h-1h-1h-1h-1v-1v-1h-1h-1h-1h-1v-1v-1h-1h-1v1v1v1v1v1v1h1H232z M270,21h1v1v1h-1h-1v-1v-1H270z"/>
	<path class="st0" d="M291,23v1v1h1h1v1v1h1h1v1v1h1h1v1v1h1h1v1v1h1h1v1v1h-1v1v1v1v1v1v1v1v1h1h1h1h1v-1v-1h-1h-1v-1v-1h1h1v-1v-1
		h1h1v-1v-1h1h1h1h1v1v1h1h1h1h1h1v-1v-1h-1h-1v-1h1h1h1h1h1v1v1v1v1h1h1h1h1v-1v-1h-1h-1v-1v-1h1h1v-1v-1v-1h1h1h1h1v1v1h1h1h1h1h1
		h1h1h1h1h1h1h1h1h1v-1v-1h-1h-1h-1h-1h-1h-1v-1v-1h1h1h1h1h1h1h1h1h1h1v-1v-1v-1v-1v-1v-1v-1v-1v-1h-1h-1v-1v-1h-1h-1h-1h-1h-1h-1
		h-1h-1h-1h-1h-1h-1h-1h-1h-1h-1v1v1h-1h-1v1h-1h-1h-1h-1v-1v-1h-1h-1h-1h-1h-1h-1h-1h-1h-1h-1h-1h-1h-1h-1h-1h-1h-1v1v1h-1h-1h-1
		h-1h-1h-1h-1h-1v-1v-1h-1h-1h-1h-1v-1v-1h-1h-1v1v1v1v1v1v1h1H291z M329,21h1v1v1h-1h-1v-1v-1H329z"/>
	<path class="st0" d="M7,27v1v1h1h1v1v1h1h1v1v1h1h1v1v1h1h1v1v1v1v1v1v1v1v1h1h1h1h1v-1v-1h-1h-1v-1v-1h1h1v-1v-1h1h1v-1v-1h1h1v1
		v1h1h1v1v1v1v1v1v1h1h1h1h1v-1v-1h-1h-1v-1v-1v-1v-1v-1v-1v-1v-1h1h1v-1v-1h1h1v-1v-1v-1h1h1v-1v-1v-1v-1v-1v-1v-1h1h1v1v1h1h1v-1
		v-1v-1v-1h-1h-1h-1h-1v-1v-1v-1v-1h1h1h1h1h1h1h1h1v-1v-1h-1h-1h-1h-1h-1h-1v-1v-1h1h1h1h1h1h1h1h1h1h1v-1V9V8V7V6V5V4V3V2h-1h-1V1
		V0h-1h-1h-1h-1h-1h-1h-1h-1h-1h-1h-1h-1h-1h-1h-1h-1v1v1h-1h-1v1v1v1v1v1v1v1v1v1v1v1v1v1h-1h-1v1v1h-1h-1h-1v1v1h-1h-1h-1v1v1h-1
		h-1v1v1h-1h-1h-1h-1v-1v-1h-1H9v-1v-1H8H7v-1v-1v-1v-1H6H5v1v1v1v1v1v1v1v1v1v1v1v1h1H7z M30,3h1v1v1h-1h-1V4V3H30z"/>
	<polygon class="st0" points="51,27 51,28 51,29 52,29 53,29 53,30 53,31 54,31 55,31 55,32 55,33 56,33 57,33 57,34 57,35 58,35 
		59,35 59,36 59,37 59,38 59,39 59,40 59,41 59,42 59,43 60,43 61,43 62,43 63,43 63,42 63,41 62,41 61,41 61,40 61,39 62,39 63,39 
		63,38 63,37 64,37 65,37 65,36 65,35 66,35 67,35 67,36 67,37 68,37 69,37 69,38 69,39 69,40 69,41 69,42 69,43 70,43 71,43 72,43 
		73,43 73,42 73,41 72,41 71,41 71,40 71,39 71,38 71,37 71,36 71,35 71,34 71,33 72,33 73,33 73,32 73,31 74,31 75,31 75,30 75,29 
		75,28 76,28 77,28 77,27 77,26 77,25 77,24 77,23 77,22 77,21 78,21 79,21 79,22 79,23 80,23 81,23 81,22 81,21 81,20 81,19 80,19 
		79,19 78,19 77,19 77,18 77,17 77,16 77,15 78,15 79,15 80,15 81,15 82,15 83,15 84,15 85,15 85,14 85,13 84,13 83,13 82,13 81,13 
		80,13 79,13 79,12 79,11 80,11 81,11 82,11 83,11 84,11 85,11 86,11 87,11 88,11 89,11 89,10 89,9 89,8 89,7 89,6 89,5 89,4 89,3 
		89,2 88,2 87,2 87,1 87,0 86,0 85,0 84,0 83,0 82,0 81,0 80,0 79,0 78,0 77,0 76,0 75,0 74,0 73,0 72,0 71,0 71,1 71,2 70,2 69,2 
		69,3 69,4 69,5 69,6 69,7 69,8 69,9 69,10 69,11 69,12 69,13 69,14 69,15 68,15 67,15 67,16 67,17 66,17 65,17 64,17 64,18 64,19 
		63,19 62,19 61,19 61,20 61,21 60,21 59,21 59,22 59,23 58,23 57,23 56,23 55,23 55,22 55,21 54,21 53,21 53,20 53,19 52,19 51,19 
		51,18 51,17 51,16 51,15 50,15 49,15 49,16 49,17 49,18 49,19 49,20 49,21 49,22 49,23 49,24 49,25 49,26 49,27 50,27 	"/>
	<path class="st0" d="M95,27v1v1h1h1v1v1h1h1v1v1h1h1v1v1h1h1v1v1v1v1v1v1v1v1h1h1h1h1v-1v-1h-1h-1v-1v-1h1h1v-1v-1h1h1v-1v-1h1h1h1
		h1v1v1h1h1h1h1v-1v-1h-1h-1v-1v-1h1h1v-1v-1h1h1v-1v-1v-1h1h1v-1v-1v-1v-1v-1v-1v-1h1h1v1v1h1h1v-1v-1v-1v-1h-1h-1h-1h-1v-1v-1v-1
		v-1h1h1h1h1h1h1h1h1v-1v-1h-1h-1h-1h-1h-1h-1v-1v-1h1h1h1h1h1h1h1h1h1h1v-1V9V8V7V6V5V4V3V2h-1h-1V1V0h-1h-1h-1h-1h-1h-1h-1h-1h-1
		h-1h-1h-1h-1h-1h-1h-1v1v1h-1h-1v1v1v1v1v1v1v1v1v1v1v1v1v1h-1h-1v1v1h-1h-1h-1v1v1h-1h-1h-1v1v1h-1h-1v1v1h-1h-1h-1h-1v-1v-1h-1
		h-1v-1v-1h-1h-1v-1v-1v-1v-1h-1h-1v1v1v1v1v1v1v1v1v1v1v1v1h1H95z M118,3h1v1v1h-1h-1V4V3H118z"/>
	<path class="st0" d="M139,27v1v1h1h1v1v1h1h1v1v1h1h1v1v1h1h1v1v1h1h1v1v1h1h1h1h1v-1v-1h-1h-1v-1v-1h1h1h1h1v1v1h1h1v1v1v1v1v1v1
		h1h1h1h1v-1v-1h-1h-1v-1v-1v-1v-1v-1v-1v-1v-1h1h1v-1v-1h1h1v-1v-1v-1h1h1v-1v-1v-1v-1v-1v-1v-1h1h1v1v1h1h1v-1v-1v-1v-1h-1h-1h-1
		h-1v-1v-1v-1v-1h1h1h1h1h1h1h1h1v-1v-1h-1h-1h-1h-1h-1h-1v-1v-1h1h1h1h1h1h1h1h1h1h1v-1V9V8V7V6V5V4V3V2h-1h-1V1V0h-1h-1h-1h-1h-1
		h-1h-1h-1h-1h-1h-1h-1h-1h-1h-1h-1v1v1h-1h-1v1v1v1v1v1v1v1v1v1v1v1v1v1h-1h-1v1v1h-1h-1h-1v1v1h-1h-1h-1v1v1h-1h-1v1v1h-1h-1h-1
		h-1v-1v-1h-1h-1v-1v-1h-1h-1v-1v-1v-1v-1h-1h-1v1v1v1v1v1v1v1v1v1v1v1v1h1H139z M162,3h1v1v1h-1h-1V4V3H162z"/>
	<path class="st0" d="M183,27v1v1h1h1v1v1h1h1v1v1h1h1v1h1h1v1v1v1v1v1v1v1v1v1h1h1h1h1v-1v-1h-1h-1v-1v-1h1h1v-1v-1h1h1v-1v-1h1h1
		v1v1h1h1v1v1v1v1v1v1h1h1h1h1v-1v-1h-1h-1v-1v-1v-1v-1v-1v-1v-1v-1h1h1v-1v-1h1h1v-1v-1v-1h1h1v-1v-1v-1v-1v-1v-1v-1h1h1v1v1h1h1
		v-1v-1v-1v-1h-1h-1h-1h-1v-1v-1v-1v-1h1h1h1h1h1h1h1h1v-1v-1h1h1h1h1v-1v-1v-1V9V8V7V6V5V4V3V2h-1h-1V1V0h-1h-1h-1h-1h-1h-1h-1h-1
		h-1h-1h-1h-1h-1h-1h-1h-1v1v1h-1h-1v1v1v1v1v1v1v1v1v1v1v1v1v1h-1h-1v1v1h-1h-1h-1v1v1h-1h-1h-1v1v1h-1h-1v1v1h-1h-1h-1h-1v-1v-1
		h-1h-1v-1v-1h-1h-1v-1v-1v-1v-1h-1h-1v1v1v1v1v1v1v1v1v1v1v1v1h1H183z M206,3h1h1h1v1v1v1v1h-1h-1h-1h-1V6V5V4V3H206z"/>
	<polygon class="st0" points="403,27 403,28 403,29 404,29 405,29 405,28 405,27 404,27 	"/>
	<polygon class="st0" points="363,39 362,39 361,39 361,40 361,41 362,41 363,41 363,40 	"/>
	<polygon class="st0" points="349,41 349,40 349,39 348,39 347,39 347,40 347,41 348,41 	"/>
	<polygon class="st0" points="353,41 354,41 355,41 355,40 355,39 355,38 355,37 355,36 355,35 356,35 357,35 357,34 357,33 358,33 
		359,33 360,33 361,33 362,33 363,33 364,33 365,33 366,33 367,33 368,33 369,33 370,33 371,33 371,32 371,31 372,31 373,31 373,30 
		373,29 374,29 375,29 376,29 377,29 378,29 379,29 379,28 379,27 379,26 379,25 379,24 379,23 379,22 379,21 380,21 381,21 382,21 
		383,21 383,20 383,19 384,19 385,19 385,18 385,17 386,17 387,17 388,17 389,17 390,17 391,17 392,17 393,17 394,17 395,17 395,16 
		395,15 396,15 397,15 398,15 399,15 399,16 399,17 400,17 401,17 402,17 403,17 403,18 403,19 403,20 403,21 404,21 405,21 405,22 
		405,23 405,24 405,25 405,26 405,27 406,27 407,27 407,26 407,25 408,25 409,25 410,25 411,25 411,26 411,27 412,27 413,27 414,27 
		415,27 416,27 417,27 418,27 419,27 420,27 421,27 421,28 421,29 421,30 421,31 422,31 423,31 424,31 425,31 426,31 427,31 427,32 
		427,33 427,34 427,35 427,36 427,37 428,37 429,37 430,37 431,37 431,38 431,39 432,39 433,39 433,38 433,37 433,36 433,35 432,35 
		431,35 430,35 429,35 429,34 429,33 429,32 429,31 429,30 429,29 428,29 427,29 426,29 425,29 424,29 423,29 423,28 423,27 423,26 
		423,25 422,25 421,25 420,25 419,25 418,25 417,25 416,25 415,25 414,25 413,25 413,24 413,23 412,23 411,23 410,23 409,23 408,23 
		407,23 407,22 407,21 407,20 407,19 406,19 405,19 405,18 405,17 405,16 405,15 404,15 403,15 402,15 401,15 401,14 401,13 400,13 
		399,13 398,13 397,13 396,13 395,13 394,13 393,13 393,14 393,15 392,15 391,15 390,15 389,15 388,15 387,15 386,15 385,15 384,15 
		383,15 383,16 383,17 382,17 381,17 381,18 381,19 380,19 379,19 378,19 377,19 377,20 377,21 377,22 377,23 377,24 377,25 377,26 
		377,27 376,27 375,27 374,27 373,27 372,27 371,27 371,28 371,29 370,29 369,29 369,30 369,31 368,31 367,31 366,31 365,31 364,31 
		363,31 362,31 361,31 360,31 359,31 358,31 357,31 356,31 355,31 355,32 355,33 354,33 353,33 353,34 353,35 353,36 353,37 353,38 
		353,39 352,39 351,39 351,40 351,41 352,41 	"/>
	<polygon class="st0" points="433,41 432,41 431,41 430,41 429,41 428,41 427,41 426,41 425,41 424,41 423,41 422,41 421,41 420,41 
		419,41 418,41 417,41 416,41 415,41 414,41 413,41 412,41 411,41 410,41 409,41 408,41 407,41 406,41 405,41 404,41 403,41 402,41 
		401,41 400,41 399,41 398,41 397,41 396,41 395,41 394,41 393,41 392,41 391,41 390,41 389,41 388,41 387,41 386,41 385,41 384,41 
		383,41 382,41 381,41 380,41 379,41 378,41 377,41 376,41 375,41 374,41 373,41 372,41 371,41 370,41 369,41 368,41 367,41 366,41 
		365,41 364,41 363,41 363,42 363,43 364,43 365,43 366,43 367,43 368,43 369,43 370,43 371,43 372,43 373,43 374,43 375,43 376,43 
		377,43 378,43 379,43 380,43 381,43 382,43 383,43 384,43 385,43 386,43 387,43 388,43 389,43 390,43 391,43 392,43 393,43 394,43 
		395,43 396,43 397,43 398,43 399,43 400,43 401,43 402,43 403,43 404,43 405,43 406,43 407,43 408,43 409,43 410,43 411,43 412,43 
		413,43 414,43 415,43 416,43 417,43 418,43 419,43 420,43 421,43 422,43 423,43 424,43 425,43 426,43 427,43 428,43 429,43 430,43 
		431,43 432,43 433,43 434,43 435,43 435,42 435,41 435,40 435,39 434,39 433,39 433,40 	"/>
	<polygon class="st0" points="221,49 220,49 219,49 218,49 217,49 217,50 216,50 216,51 216,52 216,53 216,54 216,55 216,56 216,57 
		216,58 216,59 216,60 216,61 216,62 216,63 216,64 216,65 216,66 216,67 216,68 216,69 215,69 214,69 213,69 213,68 213,67 213,66 
		213,65 213,64 213,63 213,62 213,61 213,60 213,59 213,58 213,57 213,56 213,55 212,55 212,54 211,54 210,54 209,54 209,55 208,55 
		208,56 208,57 208,58 208,59 208,60 208,61 208,62 208,63 208,64 208,65 208,66 208,67 208,68 208,69 208,70 209,70 209,71 210,71 
		210,72 211,72 211,73 211,74 212,74 212,75 213,75 214,75 215,75 216,75 216,76 216,77 216,78 216,79 216,80 216,81 216,82 216,83 
		216,84 216,85 216,86 216,87 216,88 216,89 216,90 216,91 216,92 216,93 216,94 216,95 215,95 214,95 214,96 215,96 216,96 217,96 
		218,96 219,96 220,96 221,96 222,96 223,96 223,95 223,94 223,93 223,92 223,91 223,90 223,89 223,88 223,87 223,86 223,85 223,84 
		223,83 223,82 223,81 223,80 224,80 225,80 226,80 227,80 227,79 228,79 228,78 229,78 229,77 230,77 230,76 231,76 231,75 231,74 
		231,73 231,72 231,71 231,70 231,69 231,68 231,67 231,66 231,65 231,64 231,63 231,62 231,61 231,60 230,60 230,59 229,59 228,59 
		227,59 227,60 226,60 226,61 226,62 226,63 226,64 226,65 226,66 226,67 226,68 226,69 226,70 226,71 226,72 226,73 226,74 226,75 
		226,76 225,76 224,76 223,76 223,75 223,74 223,73 223,72 223,71 223,70 223,69 223,68 223,67 223,66 223,65 223,64 223,63 223,62 
		223,61 223,60 223,59 223,58 223,57 223,56 223,55 223,54 223,53 223,52 223,51 223,50 222,50 222,49 	"/>
	<polygon class="st0" points="285,57 285,58 285,59 285,60 285,61 285,62 285,63 285,64 285,65 285,66 285,67 285,68 285,69 285,70 
		285,71 286,71 286,72 287,72 287,73 287,74 288,74 288,75 289,75 290,75 291,75 292,75 293,75 293,76 293,77 293,78 293,79 293,80 
		293,81 293,82 293,83 293,84 293,85 293,86 293,87 293,88 293,89 293,90 293,91 293,92 293,93 293,94 293,95 293,96 292,96 291,96 
		291,97 292,97 293,97 294,97 295,97 296,97 297,97 298,97 299,97 300,97 300,96 300,95 300,94 300,93 300,92 300,91 300,90 300,89 
		300,88 300,87 300,86 300,85 300,84 300,83 300,82 300,81 300,80 301,80 302,80 303,80 304,80 304,79 305,79 305,78 306,78 306,77 
		307,77 307,76 308,76 308,75 308,74 308,73 308,72 308,71 308,70 308,69 308,68 308,67 308,66 308,65 308,64 308,63 308,62 308,61 
		307,61 307,60 306,60 305,60 304,60 304,61 303,61 303,62 303,63 303,64 303,65 303,66 303,67 303,68 303,69 303,70 303,71 303,72 
		303,73 303,74 303,75 303,76 303,77 302,77 301,77 300,77 300,76 300,75 300,74 300,73 300,72 300,71 300,70 300,69 300,68 300,67 
		300,66 300,65 300,64 300,63 300,62 300,61 300,60 300,59 300,58 300,57 300,56 300,55 300,54 300,53 300,52 300,51 300,50 299,50 
		299,49 298,49 297,49 296,49 295,49 294,49 294,50 293,50 293,51 293,52 293,53 293,54 293,55 293,56 293,57 293,58 293,59 293,60 
		293,61 293,62 293,63 293,64 293,65 293,66 293,67 293,68 293,69 292,69 291,69 290,69 290,68 290,67 290,66 290,65 290,64 290,63 
		290,62 290,61 290,60 290,59 290,58 290,57 290,56 289,56 289,55 288,55 287,55 286,55 286,56 285,56 	"/>
	<path class="st0" d="M132,57h-1h-1h-1h-1h-1h-1h-1h-1h-1h-1h-1h-1h-1h-1h-1h-1h-1h-1h-1h-1h-1v1h-1v1h-1v1v1v1v1v1v1v1v1v1v1v1v1v1
		v1v1v1v1v1v1v1v1v1v1v1v1v1v1h1v1h1v1h1h1h1h1h1h1h1h1h1h1h1h1h1h1h1h1h1h1h1h1h1h1h1h1h1h1h1h1h1h1v-1h1v-1h1v-1v-1v-1v-1v-1v-1
		v-1v-1v-1v-1v-1v-1v-1v-1v-1v-1v-1v-1v-1v-1v-1v-1v-1v-1v-1v-1v-1h-1v-1h-1v-1h-1h-1h-1h-1h-1h-1h-1h-1H132z M125,63v1h1v1h1v1h1v1
		h-1v1h-1v1h-1v1h-1v1h-1v-1v-1v-1h-1h-1h-1h-1v1v1v1v1v1v1v1v1v1h1h1h1h1h1h1h1h1h1h1h1h1h1h1v-1v-1v-1v-1v-1v-1v-1v-1v-1h-1h-1v-1
		v-1v-1h1h1h1v1h1v1h1v1v1v1v1v1v1v1v1v1v1v1h-1v1h-1v1h-1h-1h-1h-1h-1h-1h-1h-1h-1h-1h-1h-1h-1h-1h-1h-1v-1h-1v-1h-1v-1v-1v-1v-1
		v-1v-1v-1v-1v-1v-1v-1h1v-1h1v-1h1h1h1h1h1v-1v-1v-1h1v1H125z"/>
	<polygon class="st0" points="176,59 176,60 175,60 175,61 175,62 175,63 175,64 175,65 175,66 175,67 175,68 175,69 175,70 175,71 
		175,72 175,73 175,74 175,75 175,76 174,76 173,76 172,76 172,75 172,74 172,73 172,72 172,71 172,70 172,69 172,68 172,67 172,66 
		172,65 172,64 172,63 172,62 172,61 172,60 172,59 172,58 172,57 172,56 172,55 172,54 172,53 172,52 172,51 172,50 171,50 171,49 
		170,49 169,49 168,49 167,49 166,49 166,50 165,50 165,51 165,52 165,53 165,54 165,55 165,56 165,57 165,58 165,59 165,60 165,61 
		165,62 165,63 165,64 165,65 165,66 165,67 165,68 165,69 165,70 165,71 165,72 165,73 165,74 165,75 165,76 164,76 163,76 162,76 
		162,75 162,74 162,73 162,72 162,71 162,70 162,69 162,68 162,67 162,66 162,65 162,64 162,63 162,62 161,62 161,61 160,61 159,61 
		158,61 158,62 157,62 157,63 157,64 157,65 157,66 157,67 157,68 157,69 157,70 157,71 157,72 157,73 157,74 157,75 157,76 157,77 
		157,78 158,78 158,79 159,79 159,80 160,80 160,81 161,81 162,81 163,81 164,81 165,81 165,82 165,83 165,84 165,85 165,86 165,87 
		165,88 165,89 165,90 165,91 165,92 165,93 165,94 165,95 164,95 163,95 163,96 164,96 165,96 166,96 167,96 168,96 169,96 170,96 
		171,96 172,96 172,95 172,94 172,93 172,92 172,91 172,90 172,89 172,88 172,87 172,86 172,85 172,84 172,83 172,82 172,81 172,80 
		173,80 174,80 175,80 176,80 176,79 177,79 177,78 178,78 178,77 179,77 179,76 180,76 180,75 180,74 180,73 180,72 180,71 180,70 
		180,69 180,68 180,67 180,66 180,65 180,64 180,63 180,62 180,61 180,60 179,60 179,59 178,59 177,59 	"/>
	<polygon class="st0" points="7,69 8,69 9,69 10,69 11,69 12,69 13,69 14,69 15,69 16,69 17,69 17,70 17,71 18,71 19,71 19,72 
		19,73 19,74 19,75 20,75 21,75 21,76 21,77 21,78 21,79 21,80 21,81 21,82 21,83 21,84 21,85 21,86 21,87 21,88 21,89 21,90 21,91 
		22,91 23,91 23,90 23,89 24,89 25,89 25,88 25,87 25,86 25,85 26,85 27,85 27,84 27,83 28,83 29,83 29,82 29,81 30,81 31,81 32,81 
		33,81 34,81 35,81 36,81 37,81 38,81 39,81 39,80 39,79 40,79 41,79 42,79 43,79 44,79 45,79 45,78 45,77 44,77 43,77 42,77 41,77 
		41,76 41,75 42,75 43,75 44,75 45,75 46,75 47,75 47,74 47,73 47,72 47,71 46,71 45,71 44,71 43,71 42,71 41,71 40,71 39,71 38,71 
		37,71 36,71 35,71 35,70 35,69 34,69 33,69 33,68 33,67 32,67 31,67 30,67 29,67 28,67 27,67 26,67 25,67 24,67 23,67 22,67 21,67 
		20,67 19,67 19,66 19,65 19,64 19,63 18,63 17,63 17,62 17,61 17,60 17,59 16,59 15,59 14,59 13,59 13,60 13,61 12,61 11,61 11,62 
		11,63 10,63 9,63 9,64 9,65 8,65 7,65 7,66 7,67 6,67 5,67 5,68 5,69 6,69 	"/>
	<polygon class="st0" points="88,71 87,71 86,71 85,71 84,71 83,71 82,71 81,71 81,70 81,69 80,69 79,69 79,68 79,67 79,66 79,65 
		78,65 77,65 77,64 77,63 76,63 75,63 75,62 75,61 74,61 73,61 73,60 73,59 72,59 71,59 71,58 71,57 70,57 69,57 69,56 69,55 68,55 
		67,55 67,54 67,53 66,53 65,53 65,54 65,55 65,56 65,57 65,58 65,59 66,59 67,59 67,60 67,61 67,62 67,63 67,64 67,65 67,66 67,67 
		66,67 65,67 65,66 65,65 65,64 65,63 64,63 63,63 63,62 63,61 63,60 63,59 62,59 61,59 60,59 59,59 59,60 59,61 58,61 57,61 57,62 
		57,63 56,63 55,63 55,64 55,65 54,65 53,65 53,66 53,67 52,67 51,67 51,68 51,69 52,69 53,69 54,69 55,69 56,69 57,69 58,69 59,69 
		60,69 61,69 62,69 63,69 63,70 63,71 64,71 65,71 65,72 65,73 65,74 65,75 66,75 67,75 67,76 67,77 68,77 69,77 69,78 69,79 70,79 
		71,79 71,80 71,81 72,81 73,81 74,81 75,81 76,81 77,81 78,81 79,81 80,81 81,81 82,81 83,81 84,81 85,81 85,80 85,79 86,79 87,79 
		88,79 89,79 90,79 91,79 91,78 91,77 90,77 89,77 88,77 87,77 87,76 87,75 88,75 89,75 90,75 91,75 92,75 93,75 93,74 93,73 93,72 
		93,71 92,71 91,71 90,71 89,71 	"/>
	<polygon class="st0" points="201,78 202,78 202,77 203,77 203,76 204,76 204,75 204,74 204,73 204,72 204,71 204,70 204,69 204,68 
		204,67 204,66 204,65 204,64 204,63 204,62 204,61 204,60 203,60 203,59 202,59 201,59 201,60 200,60 200,61 200,62 200,63 200,64 
		200,65 200,66 200,67 200,68 200,69 200,70 200,71 200,72 200,73 200,74 200,75 200,76 199,76 198,76 197,76 197,75 197,74 197,73 
		197,72 197,71 197,70 197,69 197,68 197,67 197,66 197,65 197,64 197,63 197,62 197,61 197,60 197,59 197,58 197,57 197,56 197,55 
		197,54 197,53 197,52 197,51 197,50 196,50 196,49 195,49 194,49 193,49 192,49 191,49 191,50 190,50 190,51 190,52 190,53 190,54 
		190,55 190,56 190,57 190,58 190,59 190,60 190,61 190,62 190,63 190,64 190,65 190,66 190,67 190,68 190,69 190,70 190,71 190,72 
		190,73 190,74 190,75 190,76 189,76 188,76 187,76 187,75 187,74 187,73 187,72 187,71 187,70 187,69 187,68 187,67 187,66 187,65 
		187,64 187,63 187,62 186,62 186,61 185,61 184,61 183,61 183,62 182,62 182,63 182,64 182,65 182,66 182,67 182,68 182,69 182,70 
		182,71 182,72 182,73 182,74 182,75 182,76 182,77 182,78 183,78 183,79 184,79 184,80 185,80 185,81 186,81 187,81 188,81 189,81 
		190,81 190,82 190,83 190,84 190,85 190,86 190,87 190,88 190,89 190,90 190,91 190,92 190,93 190,94 190,95 189,95 188,95 188,96 
		189,96 190,96 191,96 192,96 193,96 194,96 195,96 196,96 197,96 197,95 197,94 197,93 197,92 197,91 197,90 197,89 197,88 197,87 
		197,86 197,85 197,84 197,83 197,82 197,81 197,80 197,79 198,79 199,79 200,79 201,79 	"/>
	<polygon class="st0" points="347,79 348,79 348,80 349,80 350,80 351,80 351,81 351,82 351,83 351,84 351,85 351,86 351,87 351,88 
		351,89 351,90 351,91 351,92 351,93 351,94 351,95 351,96 351,97 352,97 353,97 354,97 355,97 356,97 356,96 356,95 356,94 356,93 
		356,92 356,91 356,90 356,89 356,88 356,87 356,86 356,85 356,84 357,84 358,84 359,84 359,83 360,83 360,82 361,82 361,81 361,80 
		361,79 361,78 361,77 361,76 361,75 361,74 361,73 361,72 361,71 361,70 361,69 360,69 360,68 359,68 359,69 358,69 358,70 358,71 
		358,72 358,73 358,74 358,75 358,76 358,77 358,78 358,79 358,80 358,81 357,81 356,81 356,80 356,79 356,78 356,77 356,76 356,75 
		356,74 356,73 356,72 356,71 356,70 356,69 356,68 356,67 356,66 356,65 355,65 355,64 354,64 353,64 352,64 352,65 351,65 351,66 
		351,67 351,68 351,69 351,70 351,71 351,72 351,73 351,74 351,75 351,76 350,76 350,75 350,74 350,73 350,72 350,71 350,70 350,69 
		349,69 349,68 348,68 347,68 347,69 346,69 346,70 346,71 346,72 346,73 346,74 346,75 346,76 346,77 346,78 347,78 	"/>
	<polygon class="st0" points="252,79 253,79 253,78 254,78 254,77 255,77 255,76 255,75 255,74 255,73 255,72 255,71 255,70 255,69 
		255,68 255,67 255,66 255,65 255,64 255,63 255,62 255,61 254,61 254,60 253,60 252,60 252,61 251,61 251,62 251,63 251,64 251,65 
		251,66 251,67 251,68 251,69 251,70 251,71 251,72 251,73 251,74 251,75 251,76 251,77 250,77 249,77 248,77 248,76 248,75 248,74 
		248,73 248,72 248,71 248,70 248,69 248,68 248,67 248,66 248,65 248,64 248,63 248,62 248,61 248,60 248,59 248,58 248,57 248,56 
		248,55 248,54 248,53 248,52 248,51 248,50 247,50 247,49 246,49 245,49 244,49 243,49 242,49 242,50 241,50 241,51 241,52 241,53 
		241,54 241,55 241,56 241,57 241,58 241,59 241,60 241,61 241,62 241,63 241,64 241,65 241,66 241,67 241,68 241,69 241,70 241,71 
		241,72 241,73 241,74 241,75 241,76 241,77 240,77 239,77 238,77 238,76 238,75 238,74 238,73 238,72 238,71 238,70 238,69 238,68 
		238,67 238,66 238,65 238,64 238,63 238,62 237,62 237,61 236,61 235,61 234,61 234,62 233,62 233,63 233,64 233,65 233,66 233,67 
		233,68 233,69 233,70 233,71 233,72 233,73 233,74 233,75 233,76 233,77 233,78 234,78 234,79 235,79 235,80 236,80 236,81 237,81 
		237,82 238,82 239,82 240,82 241,82 241,83 241,84 241,85 241,86 241,87 241,88 241,89 241,90 241,91 241,92 241,93 241,94 241,95 
		241,96 240,96 239,96 239,97 240,97 241,97 242,97 243,97 244,97 245,97 246,97 247,97 248,97 248,96 248,95 248,94 248,93 248,92 
		248,91 248,90 248,89 248,88 248,87 248,86 248,85 248,84 248,83 248,82 248,81 248,80 249,80 250,80 251,80 252,80 	"/>
	<polygon class="st0" points="327,79 327,78 327,77 327,76 327,75 327,74 327,73 327,72 327,71 327,70 327,69 326,69 326,68 325,68 
		325,69 324,69 324,70 324,71 324,72 324,73 324,74 324,75 324,76 324,77 324,78 324,79 323,79 322,79 322,78 322,77 322,76 322,75 
		322,74 322,73 322,72 322,71 322,70 322,69 322,68 322,67 322,66 322,65 321,65 321,64 320,64 319,64 318,64 318,65 317,65 317,66 
		317,67 317,68 317,69 317,70 317,71 317,72 317,73 317,74 317,75 317,76 317,77 317,78 317,79 317,80 317,81 317,82 317,83 316,83 
		315,83 315,82 315,81 315,80 315,79 315,78 315,77 315,76 315,75 315,74 315,73 314,73 314,72 313,72 313,73 312,73 312,74 312,75 
		312,76 312,77 312,78 312,79 312,80 312,81 312,82 312,83 312,84 313,84 313,85 314,85 314,86 315,86 316,86 317,86 317,87 317,88 
		317,89 317,90 317,91 317,92 317,93 317,94 317,95 317,96 317,97 318,97 319,97 320,97 321,97 322,97 322,96 322,95 322,94 322,93 
		322,92 322,91 322,90 322,89 322,88 322,87 322,86 322,85 322,84 322,83 322,82 323,82 324,82 325,82 325,81 326,81 326,80 327,80 
			"/>
	<polygon class="st0" points="343,80 344,80 344,79 344,78 344,77 344,76 344,75 344,74 344,73 344,72 344,71 344,70 344,69 343,69 
		343,68 342,68 342,69 341,69 341,70 341,71 341,72 341,73 341,74 341,75 341,76 341,77 341,78 341,79 340,79 339,79 339,78 339,77 
		339,76 339,75 339,74 339,73 339,72 339,71 339,70 339,69 339,68 339,67 339,66 339,65 338,65 338,64 337,64 336,64 335,64 335,65 
		334,65 334,66 334,67 334,68 334,69 334,70 334,71 334,72 334,73 334,74 334,75 334,76 334,77 334,78 334,79 334,80 334,81 334,82 
		334,83 333,83 332,83 332,82 332,81 332,80 332,79 332,78 332,77 332,76 332,75 332,74 332,73 331,73 331,72 330,72 330,73 329,73 
		329,74 329,75 329,76 329,77 329,78 329,79 329,80 329,81 329,82 329,83 329,84 330,84 330,85 331,85 331,86 332,86 333,86 334,86 
		334,87 334,88 334,89 334,90 334,91 334,92 334,93 334,94 334,95 334,96 334,97 335,97 336,97 337,97 338,97 339,97 339,96 339,95 
		339,94 339,93 339,92 339,91 339,90 339,89 339,88 339,87 339,86 339,85 339,84 339,83 339,82 340,82 341,82 342,82 342,81 343,81 
			"/>
	<polygon class="st0" points="412,81 412,80 412,79 412,78 412,77 412,76 412,75 412,74 412,73 412,72 412,71 412,70 412,69 411,69 
		411,68 410,68 410,69 409,69 409,70 409,71 409,72 409,73 409,74 409,75 409,76 409,77 409,78 409,79 409,80 409,81 408,81 407,81 
		407,80 407,79 407,78 407,77 407,76 407,75 407,74 407,73 407,72 407,71 407,70 407,69 407,68 407,67 407,66 407,65 406,65 406,64 
		405,64 404,64 403,64 403,65 402,65 402,66 402,67 402,68 402,69 402,70 402,71 402,72 402,73 402,74 402,75 402,76 402,77 402,78 
		402,79 401,79 400,79 400,78 400,77 400,76 400,75 400,74 400,73 400,72 400,71 400,70 400,69 400,68 399,68 399,67 398,67 398,68 
		397,68 397,69 397,70 397,71 397,72 397,73 397,74 397,75 397,76 397,77 397,78 397,79 397,80 398,80 398,81 399,81 399,82 400,82 
		401,82 402,82 402,83 402,84 402,85 402,86 402,87 402,88 402,89 402,90 402,91 402,92 402,93 402,94 402,95 402,96 402,97 403,97 
		404,97 405,97 406,97 407,97 407,96 407,95 407,94 407,93 407,92 407,91 407,90 407,89 407,88 407,87 407,86 407,85 407,84 408,84 
		409,84 410,84 410,83 411,83 411,82 412,82 	"/>
	<polygon class="st0" points="265,85 265,86 265,87 265,88 265,89 265,90 265,91 265,92 265,93 265,94 265,95 265,96 265,97 266,97 
		267,97 268,97 269,97 270,97 270,96 270,95 270,94 270,93 270,92 270,91 270,90 270,89 270,88 270,87 270,86 270,85 270,84 270,83 
		270,82 270,81 270,80 270,79 270,78 270,77 270,76 270,75 270,74 270,73 270,72 270,71 270,70 270,69 271,69 272,69 273,69 274,69 
		274,68 275,68 275,67 276,67 276,66 276,65 276,64 276,63 276,62 276,61 276,60 276,59 276,58 276,57 275,57 275,56 274,56 274,57 
		273,57 273,58 273,59 273,60 273,61 273,62 273,63 273,64 273,65 273,66 272,66 271,66 270,66 270,65 270,64 270,63 270,62 270,61 
		270,60 270,59 270,58 270,57 270,56 270,55 270,54 270,53 270,52 269,52 269,51 268,51 267,51 266,51 266,52 265,52 265,53 265,54 
		265,55 265,56 265,57 265,58 265,59 265,60 265,61 265,62 265,63 265,64 265,65 265,66 265,67 265,68 265,69 265,70 265,71 265,72 
		265,73 265,74 265,75 265,76 265,77 265,78 265,79 264,79 263,79 263,78 263,77 263,76 263,75 263,74 263,73 263,72 263,71 263,70 
		263,69 263,68 263,67 263,66 262,66 262,65 261,65 260,65 260,66 259,66 259,67 259,68 259,69 259,70 259,71 259,72 259,73 259,74 
		259,75 259,76 259,77 259,78 259,79 259,80 260,80 260,81 261,81 261,82 262,82 262,83 263,83 264,83 265,83 265,84 	"/>
	<polygon class="st0" points="395,86 395,85 395,84 395,83 395,82 395,81 395,80 395,79 395,78 395,77 395,76 395,75 395,74 395,73 
		395,72 394,72 394,71 393,71 393,72 392,72 392,73 392,74 392,75 392,76 392,77 392,78 392,79 392,80 392,81 392,82 392,83 392,84 
		392,85 392,86 391,86 390,86 390,85 390,84 390,83 390,82 390,81 390,80 390,79 390,78 390,77 390,76 390,75 390,74 390,73 390,72 
		390,71 390,70 390,69 390,68 390,67 390,66 390,65 389,65 389,64 388,64 387,64 386,64 386,65 385,65 385,66 385,67 385,68 385,69 
		385,70 385,71 385,72 385,73 385,74 385,75 385,76 385,77 385,78 385,79 385,80 385,81 385,82 385,83 385,84 384,84 383,84 383,83 
		383,82 383,81 383,80 383,79 383,78 383,77 383,76 383,75 383,74 383,73 383,72 383,71 383,70 383,69 383,68 382,68 382,67 381,67 
		381,68 380,68 380,69 380,70 380,71 380,72 380,73 380,74 380,75 380,76 380,77 380,78 380,79 380,80 380,81 380,82 380,83 380,84 
		381,84 381,85 382,85 382,86 383,86 383,87 384,87 385,87 385,88 385,89 385,90 385,91 385,92 385,93 385,94 385,95 385,96 385,97 
		386,97 387,97 388,97 389,97 390,97 390,96 390,95 390,94 390,93 390,92 390,91 390,90 390,89 391,89 392,89 393,89 393,88 394,88 
		394,87 395,87 	"/>
	<polygon class="st0" points="368,88 368,89 368,90 368,91 368,92 368,93 368,94 368,95 368,96 368,97 369,97 370,97 371,97 372,97 
		373,97 373,96 373,95 373,94 373,93 373,92 373,91 373,90 373,89 373,88 373,87 373,86 373,85 373,84 373,83 373,82 374,82 375,82 
		376,82 376,81 377,81 377,80 378,80 378,79 378,78 378,77 378,76 378,75 378,74 378,73 378,72 378,71 378,70 378,69 377,69 377,68 
		376,68 376,69 375,69 375,70 375,71 375,72 375,73 375,74 375,75 375,76 375,77 375,78 375,79 374,79 373,79 373,78 373,77 373,76 
		373,75 373,74 373,73 373,72 373,71 373,70 373,69 373,68 373,67 373,66 373,65 372,65 372,64 371,64 370,64 369,64 369,65 368,65 
		368,66 368,67 368,68 368,69 368,70 368,71 368,72 368,73 368,74 368,75 368,76 368,77 368,78 368,79 368,80 368,81 368,82 368,83 
		367,83 366,83 366,82 366,81 366,80 366,79 366,78 366,77 366,76 366,75 366,74 366,73 365,73 365,72 364,72 364,73 363,73 363,74 
		363,75 363,76 363,77 363,78 363,79 363,80 363,81 363,82 363,83 363,84 364,84 364,85 365,85 365,86 366,86 367,86 368,86 368,87 
			"/>
	<polygon class="st0" points="278,89 278,90 278,91 278,92 278,93 278,94 278,95 278,96 278,97 279,97 280,97 281,97 281,96 281,95 
		281,94 281,93 281,92 281,91 281,90 281,89 281,88 281,87 281,86 282,86 283,86 284,86 284,85 285,85 285,84 286,84 286,83 286,82 
		286,81 286,80 286,79 286,78 286,77 286,76 286,75 285,75 285,74 284,74 284,75 283,75 283,76 283,77 283,78 283,79 283,80 283,81 
		283,82 283,83 283,84 282,84 281,84 281,83 281,82 281,81 281,80 281,79 281,78 281,77 281,76 281,75 281,74 281,73 281,72 281,71 
		281,70 281,69 280,69 280,68 279,68 279,69 278,69 278,70 278,71 278,72 278,73 278,74 278,75 278,76 278,77 278,78 278,79 278,80 
		278,81 278,82 278,83 278,84 277,84 276,84 276,83 276,82 276,81 276,80 276,79 276,78 276,77 276,76 276,75 275,75 275,74 274,74 
		274,75 273,75 273,76 273,77 273,78 273,79 273,80 273,81 273,82 273,83 273,84 274,84 274,85 275,85 275,86 276,86 276,87 277,87 
		278,87 278,88 	"/>
	<rect x="326" y="92" class="st0" width="1" height="1"/>
	<rect x="378" y="92" class="st0" width="1" height="1"/>
	<rect x="175" y="94" class="st0" width="1" height="1"/>
	<rect x="200" y="94" class="st0" width="1" height="1"/>
	<rect x="226" y="94" class="st0" width="1" height="1"/>
	<rect x="251" y="94" class="st0" width="1" height="1"/>
	<rect x="303" y="94" class="st0" width="1" height="1"/>
	<rect x="161" y="95" class="st0" width="1" height="1"/>
	<rect x="186" y="95" class="st0" width="1" height="1"/>
	<rect x="212" y="95" class="st0" width="1" height="1"/>
	<rect x="342" y="95" class="st0" width="1" height="1"/>
	<rect x="394" y="95" class="st0" width="1" height="1"/>
	<rect x="237" y="96" class="st0" width="1" height="1"/>
	<rect x="259" y="96" class="st0" width="1" height="1"/>
	<rect x="289" y="96" class="st0" width="1" height="1"/>
	<rect x="359" y="96" class="st0" width="1" height="1"/>
	<rect x="411" y="96" class="st0" width="1" height="1"/>
	<rect x="172" y="97" class="st0" width="1" height="1"/>
	<rect x="197" y="97" class="st0" width="1" height="1"/>
	<rect x="223" y="97" class="st0" width="1" height="1"/>
	<rect x="248" y="97" class="st0" width="1" height="1"/>
	<rect x="274" y="97" class="st0" width="1" height="1"/>
	<rect x="300" y="97" class="st0" width="1" height="1"/>
	<rect x="313" y="97" class="st0" width="1" height="1"/>
	<rect x="365" y="97" class="st0" width="1" height="1"/>
	<rect x="330" y="98" class="st0" width="1" height="1"/>
	<rect x="382" y="98" class="st0" width="1" height="1"/>
	<rect x="349" y="99" class="st0" width="1" height="1"/>
	<rect x="401" y="99" class="st0" width="1" height="1"/>
	<polygon class="st0" points="379,104 378,104 377,104 376,104 375,104 374,104 373,104 373,105 372,105 372,106 371,106 370,106 
		370,107 369,107 369,108 368,108 367,108 366,108 365,108 364,108 363,108 362,108 361,108 360,108 359,108 358,108 357,108 
		356,108 355,108 354,108 353,108 352,108 351,108 350,108 349,108 348,108 347,108 346,108 345,108 344,108 343,108 342,108 
		341,108 340,108 339,108 338,108 337,108 336,108 335,108 334,108 333,108 332,108 331,108 330,108 329,108 328,108 327,108 
		326,108 325,108 324,108 323,108 322,108 321,108 320,108 319,108 318,108 317,108 316,108 315,108 314,108 313,108 312,108 
		311,108 310,108 309,108 308,108 307,108 306,108 305,108 304,108 303,108 302,108 301,108 300,108 299,108 298,108 297,108 
		296,108 295,108 294,108 293,108 292,108 291,108 290,108 289,108 288,108 287,108 286,108 285,108 284,108 283,108 282,108 
		281,108 280,108 279,108 278,108 277,108 276,108 275,108 274,108 273,108 272,108 271,108 270,108 269,108 268,108 267,108 
		266,108 265,108 264,108 263,108 262,108 261,108 260,108 259,108 258,108 257,108 256,108 255,108 254,108 253,108 252,108 
		251,108 250,108 249,108 248,108 247,108 246,108 245,108 244,108 243,108 242,108 241,108 240,108 239,108 238,108 237,108 
		236,108 235,108 234,108 233,108 232,108 231,108 230,108 229,108 228,108 227,108 226,108 225,108 224,108 223,108 222,108 
		221,108 220,108 219,108 218,108 217,108 216,108 215,108 214,108 213,108 212,108 211,108 210,108 209,108 208,108 207,108 
		206,108 205,108 204,108 203,108 202,108 201,108 200,108 199,108 198,108 197,108 196,108 195,108 194,108 193,108 192,108 
		191,108 190,108 189,108 188,108 187,108 186,108 185,108 184,108 183,108 182,108 181,108 180,108 179,108 178,108 177,108 
		176,108 175,108 174,108 173,108 172,108 171,108 170,108 169,108 168,108 167,108 166,108 165,108 164,108 163,108 162,108 
		161,108 160,108 159,108 158,108 157,108 156,108 155,108 154,108 153,108 152,108 151,108 150,108 149,108 148,108 147,108 
		146,108 145,108 144,108 143,108 142,108 141,108 140,108 139,108 138,108 137,108 136,108 135,108 134,108 133,108 132,108 
		131,108 130,108 129,108 128,108 127,108 126,108 125,108 124,108 123,108 122,108 121,108 120,108 119,108 118,108 117,108 
		116,108 115,108 114,108 113,108 112,108 111,108 110,108 109,108 108,108 107,108 106,108 105,108 104,108 103,108 102,108 
		101,108 100,108 99,108 98,108 97,108 96,108 95,108 94,108 93,108 92,108 91,108 90,108 89,108 89,109 88,109 88,110 87,110 
		86,110 85,110 84,110 83,110 82,110 81,110 81,109 80,109 80,108 79,108 78,108 77,108 76,108 75,108 74,108 73,108 72,108 71,108 
		70,108 69,108 68,108 67,108 66,108 65,108 64,108 63,108 62,108 62,107 61,107 60,107 60,108 61,108 61,109 62,109 63,109 64,109 
		65,109 66,109 67,109 68,109 69,109 70,109 71,109 72,109 73,109 74,109 75,109 76,109 77,109 78,109 79,109 79,110 80,110 80,111 
		81,111 82,111 83,111 84,111 85,111 86,111 87,111 88,111 89,111 89,110 90,110 90,109 91,109 92,109 93,109 94,109 95,109 96,109 
		97,109 98,109 99,109 100,109 101,109 102,109 103,109 104,109 105,109 106,109 107,109 108,109 109,109 110,109 111,109 112,109 
		113,109 114,109 115,109 116,109 117,109 118,109 119,109 120,109 121,109 122,109 123,109 124,109 125,109 126,109 127,109 
		128,109 129,109 130,109 131,109 132,109 133,109 134,109 135,109 136,109 137,109 138,109 139,109 140,109 141,109 142,109 
		143,109 144,109 145,109 146,109 147,109 148,109 149,109 150,109 151,109 152,109 153,109 154,109 155,109 156,109 157,109 
		158,109 159,109 160,109 161,109 162,109 163,109 164,109 165,109 166,109 167,109 168,109 169,109 170,109 171,109 172,109 
		173,109 174,109 175,109 176,109 177,109 178,109 179,109 180,109 181,109 182,109 183,109 184,109 185,109 186,109 187,109 
		188,109 189,109 190,109 191,109 192,109 193,109 194,109 195,109 196,109 197,109 198,109 199,109 200,109 201,109 202,109 
		203,109 204,109 205,109 206,109 207,109 208,109 209,109 210,109 211,109 212,109 213,109 214,109 215,109 216,109 217,109 
		218,109 219,109 220,109 221,109 222,109 223,109 224,109 225,109 226,109 227,109 228,109 229,109 230,109 231,109 232,109 
		233,109 234,109 235,109 236,109 237,109 238,109 239,109 240,109 241,109 242,109 243,109 244,109 245,109 246,109 247,109 
		248,109 249,109 250,109 251,109 252,109 253,109 254,109 255,109 256,109 257,109 258,109 259,109 260,109 261,109 262,109 
		263,109 264,109 265,109 266,109 267,109 268,109 269,109 270,109 271,109 272,109 273,109 274,109 275,109 276,109 277,109 
		278,109 279,109 280,109 281,109 282,109 283,109 284,109 285,109 286,109 287,109 288,109 289,109 290,109 291,109 292,109 
		293,109 294,109 295,109 296,109 297,109 298,109 299,109 300,109 301,109 302,109 303,109 304,109 305,109 306,109 307,109 
		308,109 309,109 310,109 311,109 312,109 313,109 314,109 315,109 316,109 317,109 318,109 319,109 320,109 321,109 322,109 
		323,109 324,109 325,109 326,109 327,109 328,109 329,109 330,109 331,109 332,109 333,109 334,109 335,109 336,109 337,109 
		338,109 339,109 340,109 341,109 342,109 343,109 344,109 345,109 346,109 347,109 348,109 349,109 350,109 351,109 352,109 
		353,109 354,109 355,109 356,109 357,109 358,109 359,109 360,109 361,109 362,109 363,109 364,109 365,109 366,109 367,109 
		368,109 369,109 370,109 370,108 371,108 371,107 372,107 373,107 373,106 374,106 374,105 375,105 376,105 377,105 378,105 
		378,106 379,106 379,105 	"/>
	<polygon class="st0" points="403,104 402,104 401,104 400,104 399,104 398,104 397,104 397,105 396,105 396,106 395,106 394,106 
		394,107 395,107 396,107 397,107 397,106 398,106 398,105 399,105 400,105 401,105 402,105 402,106 403,106 403,105 	"/>
	<polygon class="st0" points="59,106 59,105 58,105 58,104 57,104 56,104 55,104 54,104 53,104 52,104 52,105 51,105 51,106 50,106 
		49,106 49,107 48,107 48,108 47,108 46,108 45,108 44,108 43,108 42,108 41,108 40,108 39,108 38,108 37,108 36,108 35,108 34,108 
		33,108 32,108 31,108 30,108 29,108 28,108 27,108 26,108 25,108 24,108 23,108 22,108 21,108 20,108 19,108 18,108 17,108 16,108 
		15,108 14,108 13,108 12,108 11,108 10,108 9,108 8,108 7,108 6,108 5,108 4,108 3,108 2,108 1,108 0,108 0,109 1,109 2,109 3,109 
		4,109 5,109 6,109 7,109 8,109 9,109 10,109 11,109 12,109 13,109 14,109 15,109 16,109 17,109 18,109 19,109 20,109 21,109 
		22,109 23,109 24,109 25,109 26,109 27,109 28,109 29,109 30,109 31,109 32,109 33,109 34,109 35,109 36,109 37,109 38,109 39,109 
		40,109 41,109 42,109 43,109 44,109 45,109 46,109 47,109 48,109 49,109 49,108 50,108 50,107 51,107 52,107 52,106 53,106 53,105 
		54,105 55,105 56,105 57,105 57,106 58,106 58,107 59,107 60,107 60,106 	"/>
	<polygon class="st0" points="380,106 379,106 379,107 380,107 381,107 381,106 	"/>
	<polygon class="st0" points="404,106 403,106 403,107 404,107 405,107 405,106 	"/>
	<polygon class="st0" points="392,107 392,108 391,108 390,108 389,108 388,108 387,108 386,108 385,108 384,108 383,108 383,107 
		382,107 381,107 381,108 382,108 382,109 383,109 384,109 385,109 386,109 387,109 388,109 389,109 390,109 391,109 392,109 
		393,109 393,108 394,108 394,107 393,107 	"/>
	<polygon class="st0" points="439,108 438,108 437,108 436,108 435,108 434,108 433,108 432,108 431,108 430,108 429,108 428,108 
		427,108 426,108 425,108 424,108 423,108 422,108 421,108 420,108 419,108 418,108 417,108 416,108 415,108 414,108 413,108 
		412,108 411,108 410,108 409,108 408,108 407,108 407,107 406,107 405,107 405,108 406,108 406,109 407,109 408,109 409,109 
		410,109 411,109 412,109 413,109 414,109 415,109 416,109 417,109 418,109 419,109 420,109 421,109 422,109 423,109 424,109 
		425,109 426,109 427,109 428,109 429,109 430,109 431,109 432,109 433,109 434,109 435,109 436,109 437,109 438,109 439,109 
		440,109 440,108 	"/>
	<polygon class="st0" points="71,111 70,111 69,111 69,112 70,112 71,112 72,112 73,112 73,111 72,111 	"/>
	<polygon class="st0" points="145,111 144,111 144,112 145,112 146,112 147,112 147,111 146,111 	"/>
	<polygon class="st0" points="273,111 272,111 271,111 271,112 272,112 273,112 274,112 275,112 275,111 274,111 	"/>
	<rect x="3" y="112" class="st0" width="1" height="1"/>
	<polygon class="st0" points="20,112 20,113 21,113 22,113 22,112 21,112 	"/>
	<polygon class="st0" points="100,112 100,113 101,113 102,113 102,112 101,112 	"/>
	<rect x="133" y="112" class="st0" width="1" height="1"/>
	<rect x="164" y="112" class="st0" width="1" height="1"/>
	<polygon class="st0" points="239,112 239,113 240,113 241,113 241,112 240,112 	"/>
	<rect x="280" y="112" class="st0" width="1" height="1"/>
	<polygon class="st0" points="300,112 299,112 299,113 300,113 301,113 302,113 302,112 301,112 	"/>
	<polygon class="st0" points="357,112 356,112 356,113 357,113 358,113 359,113 359,112 358,112 	"/>
	<polygon class="st0" points="416,112 415,112 415,113 416,113 417,113 418,113 418,112 417,112 	"/>
	<rect x="149" y="113" class="st0" width="1" height="1"/>
	<rect x="217" y="113" class="st0" width="1" height="1"/>
	<polygon class="st0" points="328,113 328,114 329,114 330,114 330,113 329,113 	"/>
	<rect x="409" y="113" class="st0" width="1" height="1"/>
	<polygon class="st0" points="434,113 433,113 433,114 434,114 435,114 436,114 436,113 435,113 	"/>
	<polygon class="st0" points="10,114 9,114 8,114 8,115 9,115 10,115 11,115 12,115 12,114 11,114 	"/>
	<polygon class="st0" points="55,114 55,115 56,115 57,115 57,114 56,114 	"/>
	<rect x="96" y="114" class="st0" width="1" height="1"/>
	<polygon class="st0" points="107,114 106,114 106,115 107,115 108,115 109,115 109,114 108,114 	"/>
	<rect x="180" y="114" class="st0" width="1" height="1"/>
	<polygon class="st0" points="184,114 184,115 185,115 186,115 186,114 185,114 	"/>
	<polygon class="st0" points="201,114 200,114 200,115 201,115 202,115 203,115 203,114 202,114 	"/>
	<polygon class="st0" points="382,114 382,115 383,115 384,115 384,114 383,114 	"/>
	<rect x="40" y="115" class="st0" width="1" height="1"/>
	<polygon class="st0" points="254,115 253,115 253,116 254,116 255,116 256,116 256,115 255,115 	"/>
	<polygon class="st0" points="336,115 335,115 334,115 334,116 335,116 336,116 337,116 338,116 338,115 337,115 	"/>
	<rect x="346" y="115" class="st0" width="1" height="1"/>
</g>
</svg>
