<?xml version="1.0" encoding="UTF-8"?>
<svg id="_图层_2" data-name="图层 2" xmlns="http://www.w3.org/2000/svg" viewBox="0 0 491.51 132.96">
  <defs>
    <style>
      .cls-1 {
        fill: #535353;
      }
    </style>
  </defs>
  <g id="_图层_1-2" data-name="图层 1">
    <g>
      <path class="cls-1" d="m30.01,30.06h-8.62v-8.58h-12.52v8.58H0V8.53h4.24v-4.2h4.29V0h12.86v4.33h4.33v4.2h4.29v21.52Zm-8.62-12.91v-8.62h-4.2v-4.2h-4.33v4.2h-3.99v8.62h12.52Z"/>
      <path class="cls-1" d="m65.51,25.72h-4.29v4.33h-25.73V0h25.73v4.33h4.29v8.53l-4.29.04v3.6h4.29v9.22Zm-8.62-12.86V4.33h-12.86v8.58l12.86-.04Zm0,12.86v-9.22h-12.86v9.22h12.86Z"/>
      <path class="cls-1" d="m100.97,25.72h-4.29v4.33h-17.15v-4.33l-4.31-.04v-4.16h-4.22v-12.99h4.22v-4.2h4.31V0h17.15v4.33h4.29v4.2h-8.62v-4.2h-8.53v4.2h-4.29v12.99h4.29v4.2l8.53-.04v-4.16h8.62v4.2Z"/>
      <path class="cls-1" d="m136.47,21.52h-4.29v4.2h-4.32v4.33h-21.36V0h21.36v4.33h4.32v4.2h4.29v12.99Zm-8.58,0v-12.99h-4.24v-4.2h-8.62v21.39h8.62v-4.2h4.24Z"/>
      <path class="cls-1" d="m172.01,30.06h-30.01V0h30.01v4.33h-21.48v8.58h17.19v4.24h-17.19v8.57h21.48v4.33Z"/>
      <path class="cls-1" d="m207.51,4.33h-21.48v8.58h17.19v4.24h-17.19v12.91h-8.53V0h30.01v4.33Z"/>
      <path class="cls-1" d="m242.97,30.06h-21.44v-4.33h-4.31v-4.2h-4.22v-12.99h4.22v-4.2h4.31V0h21.44v4.33h-17.15v4.2h-4.29v12.99h4.29v4.2h8.53v-8.57h-4.2v-4.24h12.82v17.15Z"/>
      <path class="cls-1" d="m278.51,30.06h-8.62v-12.91h-12.86v12.91h-8.53V0h8.53v12.91h12.86V0h8.62v30.06Z"/>
      <path class="cls-1" d="m312.04,4.33h-9v21.39h8.58v4.33h-25.68v-4.33h8.57V4.33h-8.57V0h26.11v4.33Z"/>
      <path class="cls-1" d="m349.51,25.72h-4.33v4.33h-21.48v-4.33h-4.2v-4.2h8.53v4.2h12.86V0h8.62v25.72Z"/>
      <path class="cls-1" d="m384.97,30.06h-12.82v-4.33h-4.29v-4.2h-4.33v8.53h-8.53V0h8.53v12.86l4.33.13v-4.46h4.29v-4.2h4.25V0h8.58v4.33h-4.29v4.2h-4.29v4.46l-4.25-.13v4.29h4.25v4.37h4.29v4.2h4.29v4.33Z"/>
      <path class="cls-1" d="m420.51,30.06h-30.01V0h8.53v25.72h21.48v4.33Z"/>
      <path class="cls-1" d="m456.01,30.06h-8.62v-12.91h-4.25v4.24h-4.29v-4.24h-4.33v12.91h-8.53V0h8.53v4.33h4.33v4.2h4.29v-4.2h4.25V0h8.62v30.06Z"/>
      <path class="cls-1" d="m491.51,30.06h-8.62v-4.37h-4.25v-4.2h-4.29v-4.33h-4.33v12.91h-8.53V0h8.53v4.33h4.33v4.2h4.29v4.37h4.25V0h8.62v30.06Z"/>
      <path class="cls-1" d="m30.01,77.17h-4.29v4.33H4.24v-4.33H0v-21.39h4.24v-4.33h21.48v4.33h4.29v21.39Zm-8.62,0v-21.39h-12.86v21.39h12.86Z"/>
      <path class="cls-1" d="m65.51,68.6h-4.29v4.33h-17.19v8.58h-8.53v-30.06h25.73v4.33h4.29v12.82Zm-8.62,0v-12.82h-12.86v12.82h12.86Z"/>
      <path class="cls-1" d="m100.97,81.51h-4.29v-4.33h-4.32v4.33h-17.12v-4.33h-4.24v-21.39h4.24v-4.33h21.44l.04,4.33h4.24v17.15h-4.29l.04,4.24h4.24v4.33Zm-8.58-12.91v-12.82h-12.86v21.39h8.62v-4.24h-4.29v-4.33h8.53Z"/>
      <path class="cls-1" d="m136.51,81.51h-12.86v-4.33h-4.29v-4.2l-4.33-.04v8.58h-8.53v-30.06h25.73v4.33h4.29v12.86h-8.62v4.33h4.33v4.2h4.29v4.33Zm-8.62-17.12v-8.6h-12.86v12.86h8.62v-4.26h4.24Z"/>
      <path class="cls-1" d="m172.01,77.17h-4.33v4.33h-21.48v-4.33l-4.2-.04v-4.16h8.53v4.2l12.86-.04v-8.49l-17.19-.04v-4.29l-4.2.04v-8.58h4.2v-4.33h17.19v4.33h4.29v4.2h-8.53v-4.2h-8.62v8.53l17.15.04v4.24l4.33.04v8.53Z"/>
      <path class="cls-1" d="m205.33,55.78h-8.58v25.73h-8.53v-25.73h-8.62v-4.33h25.73v4.33Z"/>
      <path class="cls-1" d="m243.01,77.17h-4.29v4.33h-21.48v-4.33h-4.24v-25.72h8.53v25.72h12.86v-25.72h8.62v25.72Z"/>
      <path class="cls-1" d="m278.47,68.6h-4.29v4.33h-4.33v4.2h-4.2v4.37h-4.29v-4.37h-4.33v-4.2h-4.29v-4.33h-4.24v-17.15h8.53v12.91h4.33v4.24h4.29v-4.24h4.2v-12.91h8.62v17.15Z"/>
      <path class="cls-1" d="m314.01,81.51h-8.62v-4.37h-4.25v-4.2h-4.29v4.2h-4.33v4.37h-8.53v-30.06h8.53v12.91h4.33v-4.37h4.29v4.37h4.25v-12.91h8.62v30.06Z"/>
      <path class="cls-1" d="m349.47,81.51h-8.66v-4.35h-4.2v-4.18h-4.33v4.18h-4.29v4.35h-8.53v-8.53h4.22v-4.34h4.31v-4.26h-4.31v-4.39h-4.22v-8.53h8.53v4.33h4.29v4.2h4.33v-4.2h4.2v-4.33h8.66v8.53h-4.33v4.39h-4.33v4.26h4.33v4.34h4.33v8.53Z"/>
      <path class="cls-1" d="m382.83,64.36h-4.27v4.24h-4.27v12.91h-8.62v-12.91h-4.29v-4.24h-4.25v-12.91h8.53v12.91h8.62v-12.91h8.53v12.91Z"/>
      <path class="cls-1" d="m420.51,81.51h-30.01v-8.53h4.24v-4.34h4.29v-4.26h4.33v-4.39h4.29v-4.2h-17.15v-4.33h30.01v8.53h-4.33v4.39h-4.24v4.26h-4.29v4.34h-4.29v4.2h17.15v4.33Z"/>
      <path class="cls-1" d="m27.78,132.96H2.14v-4.33h8.58v-17.19h-4.33v-4.24h4.33v-4.29h8.53v25.72h8.53v4.33Z"/>
      <path class="cls-1" d="m65.47,132.96h-29.97v-8.53l4.24-.04v-4.31h4.29v-4.22h8.62v-4.42h4.29v-4.2l-12.91.09v4.12h-8.53v-4.2h4.24v-4.33h21.45v4.33h4.28v8.62h-4.27v4.24h-4.27v4.33h-8.58v4.2h17.11v4.33Z"/>
      <path class="cls-1" d="m101.01,128.62h-4.33v4.33h-21.48v-4.33l-4.2-.04v-4.16h8.53v4.2l12.86-.04v-8.49h-12.86v-4.24h4.33v-4.42h4.29v-4.2h-12.95v-4.33h25.81v4.33h-4.33v4.2h-4.29v4.42h4.29v4.24h4.33v8.53Z"/>
      <path class="cls-1" d="m136.47,124.38h-4.29v8.58h-8.53v-8.58h-17.15v-8.53l4.24-.04v-4.37h4.29v-4.12h4.32v-4.42h12.83v17.15h4.29v4.33Zm-12.82-4.33v-8.62h-4.29v4.42h-4.33v4.2h8.62Z"/>
      <path class="cls-1" d="m171.97,128.62h-4.33v4.33h-21.46v-4.33h-4.22v-4.2h8.53v4.2h12.82v-12.82h-21.35v-12.91h25.68v4.33h-17.15v4.24h17.15v4.33h4.33v12.82Z"/>
      <path class="cls-1" d="m207.47,128.62h-4.29v4.33h-21.46v-4.33l-4.22-.04v-17.15h4.22v-4.24h4.31v-4.33h17.15v4.33h-12.86v4.2h-4.29v4.42h17.15v4.24l4.29.04v8.53Zm-8.62,0v-8.53l-12.82-.04v8.53l12.82.04Z"/>
      <path class="cls-1" d="m243.01,111.43h-4.33v4.37h-4.29v4.24h-4.25v12.91h-8.62v-12.91h4.33v-4.24h4.29v-4.37h4.25v-4.2h-12.86v4.2h-8.53v-8.53h30.01v8.53Z"/>
      <path class="cls-1" d="m252.79,115.85h-4.29v-8.62h4.29v-4.33h17.11v4.33h4.29v8.62h-4.29v-8.62h-12.86v4.22h4.33v4.4h8.53v4.24h8.58v8.53h-4.29v4.33h-21.39v-4.33l-4.29-.04v-8.49h4.29v-4.24Zm0,12.78l17.11-.04v-4.2h-8.51v-4.29h-8.6v8.53Z"/>
      <path class="cls-1" d="m313.97,124.38h-4.29v4.24h-4.24v4.33h-17.15v-4.33h12.86v-4.2h4.29v-4.42h-17.15v-4.24h-4.29v-8.53h4.28v-4.33h21.4v4.33h4.29v17.15Zm-8.53-8.62v-8.53h-12.91v8.53h12.91Z"/>
      <path class="cls-1" d="m340.94,128.62v4.33h-12.91v-4.33h-4.29v-4.2h-4.24v-12.99h4.24v-4.2h4.29v17.19h4.32v4.2h8.59Zm8.58-4.2h-4.29v4.2h-4.29v-17.19h-4.25v-4.2h-8.66l.04-4.33h12.86v4.33h4.29v4.2h4.29v12.99Z"/>
    </g>
  </g>
</svg>