<?xml version="1.0" standalone="no"?><?xml-stylesheet type="text/css" href="https://wps.processon.com/themes/default/wps/mind/icons/icons.css" ?><!DOCTYPE svg PUBLIC "-//W3C//DTD SVG 1.1//EN" "http://www.w3.org/Graphics/SVG/1.1/DTD/svg11.dtd"><svg id="SvgjsSvg1000" xmlns="http://www.w3.org/2000/svg" version="1.1" xmlns:xlink="http://www.w3.org/1999/xlink" xmlns:svgjs="http://svgjs.com/svgjs" width="300.625" height="932"><rect fill="url(#pattern_mark)" transform="translate(13.625,15)" width="1050" height="1500" id="rect_mark" pointer-events="none"></rect><defs id="SvgjsDefs1001"><marker id="SvgjsMarker1021" markerWidth="14" markerHeight="10" refX="10" refY="5" viewBox="0 0 14 10" orient="auto" markerUnits="userSpaceOnUse" stroke-dasharray="0,0"><path id="SvgjsPath1022" d="M0 0L14 5L0 10L0 0 " fill="#323232" stroke="#323232" stroke-width="1"></path></marker><marker id="SvgjsMarker1025" markerWidth="14" markerHeight="10" refX="10" refY="5" viewBox="0 0 14 10" orient="auto" markerUnits="userSpaceOnUse" stroke-dasharray="0,0"><path id="SvgjsPath1026" d="M0 0L14 5L0 10L0 0 " fill="#323232" stroke="#323232" stroke-width="1"></path></marker><marker id="SvgjsMarker1041" markerWidth="14" markerHeight="10" refX="10" refY="5" viewBox="0 0 14 10" orient="auto" markerUnits="userSpaceOnUse" stroke-dasharray="0,0"><path id="SvgjsPath1042" d="M0 0L14 5L0 10L0 0 " fill="#323232" stroke="#323232" stroke-width="1"></path></marker><marker id="SvgjsMarker1045" markerWidth="14" markerHeight="10" refX="10" refY="5" viewBox="0 0 14 10" orient="auto" markerUnits="userSpaceOnUse" stroke-dasharray="0,0"><path id="SvgjsPath1046" d="M0 0L14 5L0 10L0 0 " fill="#323232" stroke="#323232" stroke-width="1"></path></marker><marker id="SvgjsMarker1053" markerWidth="14" markerHeight="10" refX="10" refY="5" viewBox="0 0 14 10" orient="auto" markerUnits="userSpaceOnUse" stroke-dasharray="0,0"><path id="SvgjsPath1054" d="M0 0L14 5L0 10L0 0 " fill="#323232" stroke="#323232" stroke-width="1"></path></marker><marker id="SvgjsMarker1085" markerWidth="14" markerHeight="10" refX="10" refY="5" viewBox="0 0 14 10" orient="auto" markerUnits="userSpaceOnUse" stroke-dasharray="0,0"><path id="SvgjsPath1086" d="M0 0L14 5L0 10L0 0 " fill="#323232" stroke="#323232" stroke-width="1"></path></marker><marker id="SvgjsMarker1089" markerWidth="14" markerHeight="10" refX="10" refY="5" viewBox="0 0 14 10" orient="auto" markerUnits="userSpaceOnUse" stroke-dasharray="0,0"><path id="SvgjsPath1090" d="M0 0L14 5L0 10L0 0 " fill="#323232" stroke="#323232" stroke-width="1"></path></marker><marker id="SvgjsMarker1093" markerWidth="14" markerHeight="10" refX="10" refY="5" viewBox="0 0 14 10" orient="auto" markerUnits="userSpaceOnUse" stroke-dasharray="0,0"><path id="SvgjsPath1094" d="M0 0L14 5L0 10L0 0 " fill="#323232" stroke="#323232" stroke-width="1"></path></marker><marker id="SvgjsMarker1115" markerWidth="14" markerHeight="10" refX="10" refY="5" viewBox="0 0 14 10" orient="auto" markerUnits="userSpaceOnUse" stroke-dasharray="0,0"><path id="SvgjsPath1116" d="M0 0L14 5L0 10L0 0 " fill="#323232" stroke="#323232" stroke-width="1"></path></marker><marker id="SvgjsMarker1123" markerWidth="14" markerHeight="10" refX="10" refY="5" viewBox="0 0 14 10" orient="auto" markerUnits="userSpaceOnUse" stroke-dasharray="0,0"><path id="SvgjsPath1124" d="M0 0L14 5L0 10L0 0 " fill="#323232" stroke="#323232" stroke-width="1"></path></marker><marker id="SvgjsMarker1127" markerWidth="14" markerHeight="10" refX="10" refY="5" viewBox="0 0 14 10" orient="auto" markerUnits="userSpaceOnUse" stroke-dasharray="0,0"><path id="SvgjsPath1128" d="M0 0L14 5L0 10L0 0 " fill="#323232" stroke="#323232" stroke-width="1"></path></marker><marker id="SvgjsMarker1137" markerWidth="14" markerHeight="10" refX="10" refY="5" viewBox="0 0 14 10" orient="auto" markerUnits="userSpaceOnUse" stroke-dasharray="0,0"><path id="SvgjsPath1138" d="M0 0L14 5L0 10L0 0 " fill="#323232" stroke="#323232" stroke-width="1"></path></marker><marker id="SvgjsMarker1147" markerWidth="14" markerHeight="10" refX="10" refY="5" viewBox="0 0 14 10" orient="auto" markerUnits="userSpaceOnUse" stroke-dasharray="0,0"><path id="SvgjsPath1148" d="M0 0L14 5L0 10L0 0 " fill="#323232" stroke="#323232" stroke-width="1"></path></marker><pattern patternUnits="userSpaceOnUse" id="pattern_mark" width="300" height="300"><text x="-50" y="150" fill="rgba(229,229,229,0.8)" font-size="18" transform="rotate(-45, 150, 150)"></text></pattern></defs><g id="SvgjsG1007" transform="translate(92.625,25)"><path id="SvgjsPath1008" d="M12.333333333333334 0L72.66666666666667 0C89.11111111111111 0 89.11111111111111 37 72.66666666666667 37L12.333333333333334 37C-4.111111111111112 37 -4.111111111111112 0 12.333333333333334 0Z " stroke="rgba(50,50,50,1)" stroke-width="2" fill-opacity="1" fill="#ffffff"></path><g id="SvgjsG1009"><text id="SvgjsText1010" font-family="微软雅黑" text-anchor="middle" font-size="13px" width="65px" fill="#323232" font-weight="400" align="middle" lineHeight="125%" font-style="" opacity="1" y="7.875" transform="rotate(0)"><tspan id="SvgjsTspan1011" dy="16" x="42.5"><tspan id="SvgjsTspan1012" style="text-decoration:;">开始</tspan></tspan></text></g></g><g id="SvgjsG1013" transform="translate(72,91.5)"><path id="SvgjsPath1014" d="M0 0L126.25 0L126.25 40L0 40Z " stroke="rgba(50,50,50,1)" stroke-width="2" fill-opacity="1" fill="#ffffff"></path><g id="SvgjsG1015"><text id="SvgjsText1016" font-family="微软雅黑" text-anchor="middle" font-size="13px" width="107px" fill="#323232" font-weight="400" align="middle" lineHeight="125%" font-style="" opacity="1" y="9.375" transform="rotate(0)"><tspan id="SvgjsTspan1017" dy="16" x="63.5"><tspan id="SvgjsTspan1018" style="text-decoration:;">初始化游戏</tspan></tspan></text></g></g><g id="SvgjsG1019"><path id="SvgjsPath1020" d="M135.125 63L135.125 76.75L135.125 76.75L135.125 87.9 " stroke="#323232" stroke-width="2" fill="none" marker-end="url(#SvgjsMarker1021)"></path></g><g id="SvgjsG1023"><path id="SvgjsPath1024" d="M135.125 132.5L135.125 146.25L135.125 146.25L135.125 157.4 " stroke="#323232" stroke-width="2" fill="none" marker-end="url(#SvgjsMarker1025)"></path></g><g id="SvgjsG1027" transform="translate(72,230.5)"><path id="SvgjsPath1028" d="M0 0L126.25 0L126.25 40L0 40Z " stroke="rgba(50,50,50,1)" stroke-width="2" fill-opacity="1" fill="#ffffff"></path><g id="SvgjsG1029"><text id="SvgjsText1030" font-family="微软雅黑" text-anchor="middle" font-size="13px" width="107px" fill="#323232" font-weight="400" align="middle" lineHeight="125%" font-style="" opacity="1" y="9.375" transform="rotate(0)"><tspan id="SvgjsTspan1031" dy="16" x="63.5"><tspan id="SvgjsTspan1032" style="text-decoration:;">运行游戏开始界面</tspan></tspan></text></g></g><g id="SvgjsG1033" transform="translate(72,300)"><path id="SvgjsPath1034" d="M0 24.25L63.125 0L126.25 24.25L63.125 48.5L0 24.25Z " stroke="rgba(50,50,50,1)" stroke-width="2" fill-opacity="1" fill="#ffffff"></path><g id="SvgjsG1035"><text id="SvgjsText1036" font-family="微软雅黑" text-anchor="middle" font-size="13px" width="107px" fill="#323232" font-weight="400" align="middle" lineHeight="125%" font-style="" opacity="1" y="13.625" transform="rotate(0)"><tspan id="SvgjsTspan1037" dy="16" x="63.5"><tspan id="SvgjsTspan1038" style="text-decoration:;">玩家判定</tspan></tspan></text></g></g><g id="SvgjsG1039"><path id="SvgjsPath1040" d="M135.125 271.5L135.125 285.25L135.125 285.25L135.125 296.4 " stroke="#323232" stroke-width="2" fill="none" marker-end="url(#SvgjsMarker1041)"></path></g><g id="SvgjsG1043"><path id="SvgjsPath1044" d="M135.125 349.5L135.125 375.75L135.125 375.75L135.125 399.4 " stroke="#323232" stroke-width="2" fill="none" marker-end="url(#SvgjsMarker1045)"></path><rect id="SvgjsRect1047" width="87" height="16" x="91.625" y="366.45" fill="#ffffff"></rect><text id="SvgjsText1048" font-family="微软雅黑" text-anchor="middle" font-size="13px" width="87px" fill="#323232" font-weight="400" align="top" lineHeight="16px" font-style="" opacity="1" y="363.825" transform="rotate(0)"><tspan id="SvgjsTspan1049" dy="16" x="135.125"><tspan id="SvgjsTspan1050" style="text-decoration:;">(重新)开始游戏</tspan></tspan></text></g><g id="SvgjsG1051"><path id="SvgjsPath1052" d="M199.25 324.25L260.25 324.25L260.25 820.5L201.85 820.5 " stroke="#323232" stroke-width="2" fill="none" marker-end="url(#SvgjsMarker1053)"></path><rect id="SvgjsRect1055" width="52" height="16" x="233.625" y="365" fill="#ffffff"></rect><text id="SvgjsText1056" font-family="微软雅黑" text-anchor="middle" font-size="13px" width="52px" fill="#323232" font-weight="400" align="top" lineHeight="16px" font-style="" opacity="1" y="362.375" transform="rotate(0)"><tspan id="SvgjsTspan1057" dy="16" x="259.625"><tspan id="SvgjsTspan1058" style="text-decoration:;">退出游戏</tspan></tspan></text></g><g id="SvgjsG1059" transform="translate(92.625,870)"><path id="SvgjsPath1060" d="M12.333333333333334 0L72.66666666666667 0C89.11111111111111 0 89.11111111111111 37 72.66666666666667 37L12.333333333333334 37C-4.111111111111112 37 -4.111111111111112 0 12.333333333333334 0Z " stroke="rgba(50,50,50,1)" stroke-width="2" fill-opacity="1" fill="#ffffff"></path><g id="SvgjsG1061"><text id="SvgjsText1062" font-family="微软雅黑" text-anchor="middle" font-size="13px" width="65px" fill="#323232" font-weight="400" align="middle" lineHeight="125%" font-style="" opacity="1" y="7.875" transform="rotate(0)"><tspan id="SvgjsTspan1063" dy="16" x="42.5"><tspan id="SvgjsTspan1064" style="text-decoration:;">结束</tspan></tspan></text></g></g><g id="SvgjsG1065" transform="translate(72,403)"><path id="SvgjsPath1066" d="M0 0L126.25 0L126.25 40L0 40Z " stroke="rgba(50,50,50,1)" stroke-width="2" fill-opacity="1" fill="#ffffff"></path><g id="SvgjsG1067"><text id="SvgjsText1068" font-family="微软雅黑" text-anchor="middle" font-size="13px" width="107px" fill="#323232" font-weight="400" align="middle" lineHeight="125%" font-style="" opacity="1" y="9.375" transform="rotate(0)"><tspan id="SvgjsTspan1069" dy="16" x="63.5"><tspan id="SvgjsTspan1070" style="text-decoration:;">更新地图及障碍物</tspan></tspan></text></g></g><g id="SvgjsG1071" transform="translate(72,472.5)"><path id="SvgjsPath1072" d="M0 0L126.25 0L126.25 40L0 40Z " stroke="rgba(50,50,50,1)" stroke-width="2" fill-opacity="1" fill="#ffffff"></path><g id="SvgjsG1073"><text id="SvgjsText1074" font-family="微软雅黑" text-anchor="middle" font-size="13px" width="107px" fill="#323232" font-weight="400" align="middle" lineHeight="125%" font-style="" opacity="1" y="9.375" transform="rotate(0)"><tspan id="SvgjsTspan1075" dy="16" x="63.5"><tspan id="SvgjsTspan1076" style="text-decoration:;">处理玩家操作</tspan></tspan></text></g></g><g id="SvgjsG1077" transform="translate(72,542)"><path id="SvgjsPath1078" d="M0 24.25L63.125 0L126.25 24.25L63.125 48.5L0 24.25Z " stroke="rgba(50,50,50,1)" stroke-width="2" fill-opacity="1" fill="#ffffff"></path><g id="SvgjsG1079"><text id="SvgjsText1080" font-family="微软雅黑" text-anchor="middle" font-size="13px" width="107px" fill="#323232" font-weight="400" align="middle" lineHeight="125%" font-style="" opacity="1" y="13.625" transform="rotate(0)"><tspan id="SvgjsTspan1081" dy="16" x="63.5"><tspan id="SvgjsTspan1082" style="text-decoration:;">碰撞检测</tspan></tspan></text></g></g><g id="SvgjsG1083"><path id="SvgjsPath1084" d="M135.125 444L135.125 457.75L135.125 457.75L135.125 468.9 " stroke="#323232" stroke-width="2" fill="none" marker-end="url(#SvgjsMarker1085)"></path></g><g id="SvgjsG1087"><path id="SvgjsPath1088" d="M135.125 513.5L135.125 527.25L135.125 527.25L135.125 538.4 " stroke="#323232" stroke-width="2" fill="none" marker-end="url(#SvgjsMarker1089)"></path></g><g id="SvgjsG1091"><path id="SvgjsPath1092" d="M199.25 566.25L228.25 566.25L228.25 423L201.85 423 " stroke="#323232" stroke-width="2" fill="none" marker-end="url(#SvgjsMarker1093)"></path><rect id="SvgjsRect1095" width="39" height="16" x="208.125" y="529" fill="#ffffff"></rect><text id="SvgjsText1096" font-family="微软雅黑" text-anchor="middle" font-size="13px" width="39px" fill="#323232" font-weight="400" align="top" lineHeight="16px" font-style="" opacity="1" y="526.375" transform="rotate(0)"><tspan id="SvgjsTspan1097" dy="16" x="227.625"><tspan id="SvgjsTspan1098" style="text-decoration:;">无碰撞</tspan></tspan></text></g><g id="SvgjsG1099" transform="translate(72,636.5)"><path id="SvgjsPath1100" d="M0 0L126.25 0L126.25 40L0 40Z " stroke="rgba(50,50,50,1)" stroke-width="2" fill-opacity="1" fill="#ffffff"></path><g id="SvgjsG1101"><text id="SvgjsText1102" font-family="微软雅黑" text-anchor="middle" font-size="13px" width="107px" fill="#323232" font-weight="400" align="middle" lineHeight="125%" font-style="" opacity="1" y="9.375" transform="rotate(0)"><tspan id="SvgjsTspan1103" dy="16" x="63.5"><tspan id="SvgjsTspan1104" style="text-decoration:;">游戏结束</tspan></tspan></text></g></g><g id="SvgjsG1105" transform="translate(72,706.5)"><path id="SvgjsPath1106" d="M0 0L126.25 0L126.25 40L0 40Z " stroke="rgba(50,50,50,1)" stroke-width="2" fill-opacity="1" fill="#ffffff"></path><g id="SvgjsG1107"><text id="SvgjsText1108" font-family="微软雅黑" text-anchor="middle" font-size="13px" width="107px" fill="#323232" font-weight="400" align="middle" lineHeight="125%" font-style="" opacity="1" y="1.375" transform="rotate(0)"><tspan id="SvgjsTspan1109" dy="16" x="63.5"><tspan id="SvgjsTspan1110" style="text-decoration:;">记录分数并</tspan></tspan><tspan id="SvgjsTspan1111" dy="16" x="63.5"><tspan id="SvgjsTspan1112" style="text-decoration:;">显示游戏结束界面</tspan></tspan></text></g></g><g id="SvgjsG1113"><path id="SvgjsPath1114" d="M135.125 591.5L135.125 613.5L135.125 613.5L135.125 632.9 " stroke="#323232" stroke-width="2" fill="none" marker-end="url(#SvgjsMarker1115)"></path><rect id="SvgjsRect1117" width="39" height="16" x="115.125" y="602" fill="#ffffff"></rect><text id="SvgjsText1118" font-family="微软雅黑" text-anchor="middle" font-size="13px" width="39px" fill="#323232" font-weight="400" align="top" lineHeight="16px" font-style="" opacity="1" y="599.375" transform="rotate(0)"><tspan id="SvgjsTspan1119" dy="16" x="134.625"><tspan id="SvgjsTspan1120" style="text-decoration:;">有碰撞</tspan></tspan></text></g><g id="SvgjsG1121"><path id="SvgjsPath1122" d="M135.125 677.5L135.125 691.5L135.125 691.5L135.125 702.9 " stroke="#323232" stroke-width="2" fill="none" marker-end="url(#SvgjsMarker1123)"></path></g><g id="SvgjsG1125"><path id="SvgjsPath1126" d="M135.125 747.5L135.125 776.5L25 776.5L25 324.25L68.4 324.25 " stroke="#323232" stroke-width="2" fill="none" marker-end="url(#SvgjsMarker1127)"></path></g><g id="SvgjsG1129" transform="translate(72,161)"><path id="SvgjsPath1130" d="M0 0L126.25 0L126.25 40L0 40Z " stroke="rgba(50,50,50,1)" stroke-width="2" fill-opacity="1" fill="#ffffff"></path><g id="SvgjsG1131"><text id="SvgjsText1132" font-family="微软雅黑" text-anchor="middle" font-size="13px" width="107px" fill="#323232" font-weight="400" align="middle" lineHeight="125%" font-style="" opacity="1" y="9.375" transform="rotate(0)"><tspan id="SvgjsTspan1133" dy="16" x="63.5"><tspan id="SvgjsTspan1134" style="text-decoration:;">连接数据库</tspan></tspan></text></g></g><g id="SvgjsG1135"><path id="SvgjsPath1136" d="M135.125 202L135.125 215.75L135.125 215.75L135.125 226.9 " stroke="#323232" stroke-width="2" fill="none" marker-end="url(#SvgjsMarker1137)"></path></g><g id="SvgjsG1139" transform="translate(72,800.5)"><path id="SvgjsPath1140" d="M0 0L126.25 0L126.25 40L0 40Z " stroke="rgba(50,50,50,1)" stroke-width="2" fill-opacity="1" fill="#ffffff"></path><g id="SvgjsG1141"><text id="SvgjsText1142" font-family="微软雅黑" text-anchor="middle" font-size="13px" width="107px" fill="#323232" font-weight="400" align="middle" lineHeight="125%" font-style="" opacity="1" y="9.375" transform="rotate(0)"><tspan id="SvgjsTspan1143" dy="16" x="63.5"><tspan id="SvgjsTspan1144" style="text-decoration:;">关闭数据库连接</tspan></tspan></text></g></g><g id="SvgjsG1145"><path id="SvgjsPath1146" d="M135.125 841.5L135.125 855.25L135.125 855.25L135.125 866.4 " stroke="#323232" stroke-width="2" fill="none" marker-end="url(#SvgjsMarker1147)"></path></g></svg>